<?xml version="1.0" standalone="no"?>
<!DOCTYPE svg PUBLIC "-//W3C//DTD SVG 1.1//EN" "http://www.w3.org/Graphics/SVG/1.1/DTD/svg11.dtd" >
<svg xmlns="http://www.w3.org/2000/svg" xmlns:xlink="http://www.w3.org/1999/xlink" version="1.1">
<metadata></metadata>
<defs>
<font id="finland_roundedthin" horiz-adv-x="694" >
<font-face units-per-em="2048" ascent="1638" descent="-410" />
<missing-glyph horiz-adv-x="327" />
<glyph horiz-adv-x="0" />
<glyph unicode="&#xd;" horiz-adv-x="327" />
<glyph unicode="&#xa;" horiz-adv-x="0" />
<glyph unicode=" "  horiz-adv-x="327" />
<glyph unicode="&#x09;" horiz-adv-x="327" />
<glyph unicode="&#xa0;" horiz-adv-x="327" />
<glyph unicode="!" horiz-adv-x="337" d="M131 35q0 -16 10.5 -26.5t26.5 -10.5t26.5 10t10.5 27q0 16 -10.5 26.5t-26.5 10.5t-26.5 -10.5t-10.5 -26.5zM145 285q0 -23 23 -23q22 0 22 23v817q0 23 -22 22q-23 0 -23 -22v-817z" />
<glyph unicode="&#x22;" horiz-adv-x="669" d="M131 821q0 -37 37 -37t37 37v82l24 129q4 12 -10 12q-12 0 -18 -10l-64 -133q-6 -8 -6 -22v-58zM438 821q0 -37 37 -37t37 37v82l25 129q4 12 -11 12q-12 0 -18 -10l-64 -133q-6 -8 -6 -22v-58z" />
<glyph unicode="#" horiz-adv-x="868" d="M131 385q0 -23 23 -23h106l-18 -217q-2 -20 20 -24q18 -4 23 20l18 221h227l-18 -217q-2 -20 20 -24q18 -4 23 20l18 221h109q23 0 23 23t-23 23h-107l21 227h115q20 0 24 22q0 23 -22 23h-111l21 242q4 18 -19 22q-23 0 -24 -18l-21 -246h-227l20 242q4 18 -18 22 q-23 0 -25 -18l-20 -246h-105q-23 0 -22 -23q0 -23 22 -22h101l-21 -227h-110q-23 0 -23 -23zM305 408l21 227h227l-21 -227h-227z" />
<glyph unicode="$" horiz-adv-x="659" d="M127 735q0 -76 48 -126t132 -109q29 -20 55.5 -39t48 -40.5t35 -46t13.5 -57.5q0 -68 -39 -107.5t-94 -39.5q-47 0 -83 28.5t-46 73.5q-6 31 -35 31q-35 0 -31 -31q10 -63 55 -109t109 -57v-112q0 -31 33 -31q31 0 30 31v112q72 10 119 62.5t47 144.5q0 37 -12 68 t-34.5 57.5t-56.5 52t-75 56.5q-57 41 -105 81t-48 103q0 68 38.5 108t94.5 40q47 0 82.5 -29t46.5 -74q6 -31 37 -31q33 0 28 31q-10 63 -55 109.5t-109 56.5v113q0 31 -30 30q-33 0 -33 -30v-113q-72 -10 -119 -62.5t-47 -144.5z" />
<glyph unicode="%" horiz-adv-x="1144" d="M131 625q0 -47 39 -78t98 -31t98.5 31t39.5 78v290q0 47 -39 78t-99 31q-59 0 -98 -30.5t-39 -78.5v-290zM172 625v290q0 27 27.5 46.5t66.5 19.5t66.5 -19.5t27.5 -46.5v-290q0 -27 -27.5 -46.5t-66.5 -19.5t-66.5 19.5t-27.5 46.5zM408 -20q-6 -23 16 -23q23 0 29 23 l280 1079q6 23 -16 22q-23 1 -29 -22zM737 127q0 -47 39 -78t98 -31t98.5 31t39.5 78v291q0 47 -39.5 77.5t-98.5 30.5t-98 -30.5t-39 -77.5v-291zM778 125v291q0 27 28 46t66 19q39 0 67 -19.5t28 -45.5v-291q0 -27 -28 -46.5t-67 -19.5t-66.5 19.5t-27.5 46.5z" />
<glyph unicode="&#x26;" horiz-adv-x="786" d="M129 240q0 -59 18.5 -104.5t49 -75t69.5 -45t78 -15.5q92 0 154 68l28 32l29 -32q10 -10 33.5 -30t40.5 -20q18 0 18 27q0 29 -29 49q-27 20 -42 54t-15 90v288h35q31 0 31 33q0 31 -31 31h-215q-45 0 -80 17.5t-58.5 47t-35.5 68.5t-12 82q0 70 37.5 123t113.5 53 t114 -53.5t38 -122.5v-14q0 -16 16 -17h33q14 0 14 17v14q0 59 -18.5 104t-49 75t-68.5 45t-79 15q-39 0 -78 -15t-69.5 -45t-49 -75t-18.5 -104q0 -139 80 -213l31 -29l-31 -28q-82 -76 -82 -295zM188 244q0 182 56 243q29 35 64.5 40t66.5 5h117v-288q0 -70 -38 -123 t-114 -53t-114 53t-38 123z" />
<glyph unicode="'" horiz-adv-x="364" d="M133 797q-2 -12 10 -13q12 0 19 11l63 133q6 10 6 22v58q0 37 -36 36q-37 1 -37 -36v-82z" />
<glyph unicode="(" horiz-adv-x="479" d="M131 82q0 -39 14.5 -75t39 -63.5t58 -45t72.5 -23.5q31 0 31 29q0 31 -31 35q-53 10 -86.5 50t-33.5 93v895q0 53 33.5 93t86.5 50q31 4 31 35q0 29 -31 29q-39 -6 -72.5 -23.5t-58 -45.5t-39 -63.5t-14.5 -74.5v-895z" />
<glyph unicode=")" horiz-adv-x="479" d="M131 -96q0 -29 31 -29q39 6 72.5 23.5t58 45t39 63.5t14.5 75v895q0 39 -14.5 74.5t-39 63.5t-58 45.5t-72.5 23.5q-31 0 -31 -29q0 -31 31 -35q53 -10 87 -50t34 -93v-895q0 -53 -34 -93t-87 -50q-31 -4 -31 -35z" />
<glyph unicode="*" horiz-adv-x="612" d="M133 918q-4 -14 8 -15l156 -39l-100 -133q-6 -10 4 -16q4 -4 6 -4q8 0 10 8l84 141l84 -141q2 -8 10 -8l8 4q8 6 3 16l-99 131l160 41q12 1 8 15q-2 8 -10 8h-6l-152 -56l10 164q0 12 -12 13q-14 0 -14 -13l10 -164l-151 56h-7q-8 0 -10 -8z" />
<glyph unicode="+" horiz-adv-x="761" d="M131 512q0 -33 33 -33h184v-184q0 -33 33 -33q31 0 31 33v184h186q31 0 31 33q0 31 -31 31h-186v186q0 31 -31 31q-33 0 -33 -31v-186h-184q-33 0 -33 -31z" />
<glyph unicode="," horiz-adv-x="337" d="M131 33q0 -16 10.5 -26.5t26.5 -10.5v-23q0 -12 6 -12q8 0 13.5 9.5t9.5 21.5t6 24.5t2 16.5q0 16 -10.5 26.5t-26.5 10.5t-26.5 -10.5t-10.5 -26.5z" />
<glyph unicode="-" horiz-adv-x="614" d="M131 524q0 -33 33 -32h289q30 -1 30 32q0 31 -30 31h-289q-33 0 -33 -31z" />
<glyph unicode="." horiz-adv-x="337" d="M131 33q0 -16 10.5 -26.5t26.5 -10.5t26.5 10t10.5 27q0 16 -10.5 26.5t-26.5 10.5t-26.5 -10.5t-10.5 -26.5z" />
<glyph unicode="/" horiz-adv-x="585" d="M135 -133q-4 -23 19 -23t26 23l271 1276q4 23 -19 22q-22 1 -26 -22z" />
<glyph unicode="0" d="M131 217q0 -45 17.5 -84t46 -67.5t67.5 -46t84 -17.5t84 17.5t68.5 46t46 67.5t16.5 84v612q0 45 -16.5 84t-46 69t-68.5 46t-84 16t-84 -16t-67.5 -46t-46 -69t-17.5 -84v-612zM195 262v565q0 63 44 108.5t107 45.5q39 0 64.5 -12.5t42.5 -28.5q18 -20 30 -43zM211 145 l289 635v-565q0 -63 -45.5 -108.5t-108.5 -45.5q-37 0 -62.5 13.5t-41.5 29.5q-18 18 -31 41z" />
<glyph unicode="1" horiz-adv-x="385" d="M145 985q-14 -25 15 -24h28v-928q0 -33 33 -33q31 0 31 33v977q0 35 -35 34h-6q-29 0 -43 -24z" />
<glyph unicode="2" d="M129 31q0 -31 31 -31h368q31 0 31 33q0 31 -31 30h-340q0 66 28 107t69 78t90 75.5t90 100t68.5 152t27.5 229.5q0 59 -18.5 104t-49 75t-68.5 45t-79 15q-37 0 -72.5 -13t-65.5 -39.5t-50.5 -65.5t-24.5 -90q-4 -31 31 -31q29 0 33 31q4 25 13 51t26.5 47.5t44 35 t65.5 13.5q45 0 75 -17.5t46 -44t23.5 -58.5t7.5 -58q0 -131 -28 -215t-69 -139.5t-88 -92t-88 -75.5t-68.5 -90.5t-27.5 -133.5v-28z" />
<glyph unicode="3" d="M135 188q12 -78 71.5 -131t141.5 -53q45 0 84 17.5t68.5 46t46 67.5t16.5 84v137q0 61 -30.5 111.5t-81.5 79.5q51 29 81.5 78t30.5 110v94q0 45 -16.5 84t-46 69t-68.5 46t-84 16q-82 0 -141.5 -53t-71.5 -131q-4 -31 31 -31q29 0 35 31q10 53 51 87t96 34 q63 0 107.5 -44t44.5 -108v-96q0 -53 -33 -94t-82 -53q-37 -6 -37 -41t37 -41q49 -12 82 -53t33 -95v-137q0 -63 -44 -107t-108 -44q-55 0 -96 33.5t-51 86.5q-6 31 -35 31q-35 0 -31 -31z" />
<glyph unicode="4" horiz-adv-x="815" d="M131 268q0 -33 33 -32h317v-203q0 -33 33 -33q31 0 31 33v203h106q31 0 31 32q0 31 -31 31h-106v707q0 41 -41 41h-10q-33 0 -48 -31l-311 -707q-4 -12 -4 -20v-21zM201 299l280 637v-637h-280z" />
<glyph unicode="5" d="M131 625q0 -43 43 -43h10q29 0 49 24q14 16 42 33.5t71 17.5q63 0 107.5 -44t44.5 -107v-289q0 -63 -44 -107t-108 -44q-47 0 -88 27.5t-55 66.5q-10 29 -37 28q-35 0 -29 -30q12 -66 73.5 -110t135.5 -44q45 0 84 17.5t68.5 46t46 67.5t16.5 84v289q0 45 -16.5 84 t-46 68.5t-68.5 46t-84 16.5q-39 0 -66.5 -10.5t-48.5 -22.5q-23 -14 -36 -33v330h319q31 0 31 33q0 31 -31 31h-332q-51 0 -51 -52v-374z" />
<glyph unicode="6" d="M131 217q0 -45 17.5 -84t46 -67.5t67.5 -46t84 -17.5v-2q45 0 84 17.5t68.5 46t46 67.5t16.5 84v156q0 45 -16.5 84t-46 68.5t-68.5 46t-84 16.5t-84 -17.5t-67 -46.5v307q0 63 44 107.5t107 44.5q53 0 95 -33t53 -82q6 -31 36 -30q33 0 29 30q-12 76 -72.5 128.5 t-140.5 52.5q-45 0 -84 -16.5t-67.5 -46.5t-46 -68.5t-17.5 -84.5v-614zM195 217v156q0 63 44 107t107 44t107.5 -44t44.5 -107v-156q0 -63 -44 -107t-108 -44q-63 0 -107 44t-44 107z" />
<glyph unicode="7" horiz-adv-x="716" d="M131 1016q0 -33 33 -33h336l-293 -952q-10 -31 22 -31q33 0 43 31l291 950q10 29 -3 47.5t-46 18.5h-350q-33 0 -33 -31z" />
<glyph unicode="8" d="M133 215q0 -45 17.5 -84t46 -67.5t67.5 -46t84 -17.5t84 17.5t68.5 46t46 67.5t16.5 84v137q0 61 -30.5 111.5t-81.5 79.5q51 29 81.5 79t30.5 111v96q0 45 -16.5 84t-46 69t-68.5 46t-84 16t-84 -16t-67.5 -46t-46 -69t-17.5 -84v-96q0 -61 31 -111.5t82 -78.5 q-51 -29 -82 -79t-31 -112v-137zM197 217v137q0 63 44 107.5t107 44.5t107.5 -44t44.5 -108v-137q0 -63 -44 -107t-108 -44q-63 0 -107 44t-44 107zM197 731v96q0 63 44 107.5t107 44.5t107.5 -44t44.5 -108v-96q0 -63 -44.5 -107t-107.5 -44t-107 44t-44 107z" />
<glyph unicode="9" d="M131 676q0 -45 17.5 -84t46 -67.5t67.5 -46t84 -17.5t84 17.5t68 45.5v-307q0 -63 -44 -107t-108 -44q-53 0 -95 32.5t-52 81.5q-6 31 -35 31q-35 0 -31 -31q12 -76 72.5 -128t140.5 -52q45 0 84 17.5t68.5 46t46 67.5t16.5 84v614q0 45 -16.5 84t-46 69t-68.5 47.5 t-84 17.5t-84 -16.5t-67.5 -46.5t-46 -68.5t-17.5 -84.5v-155zM195 674v155q0 63 44 107.5t107 44.5t107.5 -44t44.5 -108v-155q0 -63 -44 -107.5t-108 -44.5q-63 0 -107 44t-44 108z" />
<glyph unicode=":" horiz-adv-x="337" d="M131 217q0 -16 10.5 -26.5t26.5 -10.5t26.5 10.5t10.5 26.5t-10.5 26.5t-26.5 10.5t-26.5 -10.5t-10.5 -26.5zM131 848q0 -16 10.5 -26.5t26.5 -10.5t26.5 10t10.5 27q0 16 -10.5 26.5t-26.5 10.5t-26.5 -10.5t-10.5 -26.5z" />
<glyph unicode=";" horiz-adv-x="337" d="M131 217q0 -16 10.5 -26.5t26.5 -10.5v-20q0 -14 6 -15q8 0 13.5 9.5t9.5 21.5t6 24.5t2 16.5q0 16 -10.5 26.5t-26.5 10.5t-26.5 -10.5t-10.5 -26.5zM131 848q0 -16 10.5 -26.5t26.5 -10.5t26.5 10t10.5 27q0 16 -10.5 26.5t-26.5 10.5t-26.5 -10.5t-10.5 -26.5z" />
<glyph unicode="&#x3c;" horiz-adv-x="770" d="M168 516.5q0 -22.5 29 -43.5l403 -262q10 -8 21 -8q16 0 16 26v15q0 31 -23 43l-352 229l352 229q23 12 23 43v15q0 27 -16 26q-9 0 -21 -6l-403 -264q-29 -20 -29 -42.5z" />
<glyph unicode="=" horiz-adv-x="739" d="M131 391q0 -33 33 -33h411q31 0 31 33q0 31 -31 31h-411q-33 0 -33 -31zM131 641q0 -33 33 -33h411q31 0 31 33q0 31 -31 31h-411q-33 0 -33 -31z" />
<glyph unicode="&#x3e;" horiz-adv-x="770" d="M131 225q0 -27 16 -26q10 0 21 8l403 262q29 20 29 43t-29 43l-403 264q-12 6 -21 6q-16 1 -16 -26v-15q0 -29 23 -43l352 -229l-352 -229q-23 -14 -23 -43v-15z" />
<glyph unicode="?" horiz-adv-x="712" d="M133 846q0 -12 12 -12h23q10 0 10 12v10q0 31 10.5 66.5t32 66.5t55 52.5t82.5 21.5q51 0 85 -21.5t55.5 -52.5t31 -66.5t9.5 -66.5h-2q0 -76 -32 -134t-70 -111.5t-69.5 -109t-31.5 -124.5v-94q0 -23 22 -23q20 0 21 23v94q0 72 31.5 120t69.5 97t70 108.5t32 153.5 q0 61 -19.5 108.5t-51.5 79t-72 48t-81 16.5t-80.5 -16.5t-71.5 -48t-51.5 -78.5t-19.5 -109v-10zM322 33q0 -16 10 -26.5t26 -10.5t26.5 10t10.5 27q0 16 -10.5 26.5t-26.5 10.5t-26 -10.5t-10 -26.5z" />
<glyph unicode="@" horiz-adv-x="901" d="M133 244q0 -61 28.5 -108.5t75 -78t102.5 -46t112 -15.5q41 0 75.5 7t61.5 24l8 4q6 2 2 12l-8 14q-2 6 -10 2l-9 -4q-51 -29 -127 -28q-47 0 -96 13t-89 38.5t-65.5 65.5t-25.5 94v538q0 59 24.5 102.5t65.5 72t92 43t103 14.5q53 0 103 -14.5t91 -42t65.5 -70.5 t24.5 -101v-422q0 -49 -24 -77q-8 -8 -18.5 -15.5t-30.5 -7.5q-45 0 -62.5 32t-17.5 70v422q0 16 -17 17q-16 0 -16 -17v-61l-47 31q-37 25 -78 24q-41 0 -78 -29.5t-37 -105.5v-268q0 -57 33 -92t86 -35q57 0 102 39l25 22l18 -26q37 -49 91 -50q41 0 75.5 32t34.5 102v421 q0 66 -27.5 115t-73.5 82t-103.5 49.5t-116.5 16.5l-4 -2q-59 0 -117 -16.5t-102 -50.5t-71.5 -83t-27.5 -115v-538zM346 375v268q0 39 18.5 69.5t63.5 30.5q31 0 53.5 -14t38 -36.5t23.5 -49.5t8 -53v-187q0 -53 -33 -86.5t-86 -33.5q-43 0 -64.5 25.5t-21.5 66.5z" />
<glyph unicode="A" horiz-adv-x="804" d="M141 33q-6 -33 25 -33q35 0 41 33l57 248h279l57 -248q10 -33 41 -33q35 0 25 33l-232 991q-6 25 -31 25t-30 -25zM279 344l124 533l125 -533h-249z" />
<glyph unicode="B" horiz-adv-x="708" d="M129 51q0 -51 51 -51h158q49 0 92 18.5t76 51t51 75.5t18 93v100q0 109 -83 180l-35 29l30 31q70 70 70 167v62q0 49 -18.5 92t-51 76t-75.5 51t-93 18h-139q-51 0 -51 -51v-942zM193 61v447h145q72 0 123 -51t51 -123v-98q0 -72 -51 -123.5t-123 -51.5h-145zM193 573 v410h129q72 0 123 -51t51 -123v-61q0 -72 -51.5 -123.5t-122.5 -51.5h-129z" />
<glyph unicode="C" d="M133 213q0 -45 17.5 -84t46 -67.5t67.5 -46t84 -17.5q78 0 139.5 50t73.5 128q4 29 -29 33q-30 0 -36 -31q-10 -49 -51.5 -82t-96.5 -33q-63 0 -107 44.5t-44 107.5v612q0 63 44 107.5t107 44.5q53 0 95 -34t53 -83q6 -31 36 -31q33 0 29 31q-12 78 -73.5 128t-139.5 50 q-45 0 -84 -16t-67.5 -46t-46 -69t-17.5 -84v-612z" />
<glyph unicode="D" horiz-adv-x="708" d="M129 53q0 -51 51 -51h158q49 0 92 18.5t76 51t51 75.5t18 93v569q0 49 -18 92t-51 76t-76 51.5t-92 18.5h-158q-51 0 -51 -52v-942zM193 66v917h145q72 0 123 -51t51 -123v-569q0 -72 -51 -123t-123 -51h-145z" />
<glyph unicode="E" horiz-adv-x="552" d="M131 51q0 -51 51 -51h205q33 0 33 33t-33 33h-194v446h118q31 0 31 33q0 31 -31 30h-118v408h194q33 0 33 33t-33 33h-205q-51 0 -51 -52v-946z" />
<glyph unicode="F" horiz-adv-x="552" d="M133 33q0 -33 33 -33q31 0 31 33v479h118q31 0 31 33q-4 30 -33 30h-118v408h194q33 0 33 33t-33 33h-205q-51 0 -51 -52v-964z" />
<glyph unicode="G" d="M133 215q0 -45 17.5 -84t46 -67.5t67.5 -46t84 -17.5t84 17.5t68.5 46t46 67.5t16.5 84v213q0 51 -51 51h-80q-33 0 -33 -30q0 -33 33 -33h68v-201q0 -63 -44 -107.5t-108 -44.5q-63 0 -107 44.5t-44 107.5v612q0 63 44 107.5t107 44.5q55 0 96 -33t52 -82q6 -31 36 -30 q33 0 29 30q-12 78 -73.5 128t-139.5 50q-45 0 -84 -16t-67.5 -46t-46 -69t-17.5 -84v-612z" />
<glyph unicode="H" horiz-adv-x="708" d="M129 33q0 -33 33 -33q31 0 31 33v461h319v-461q0 -33 33 -33q30 0 30 33v985q0 31 -30 31q-33 0 -33 -31v-463h-319v463q0 31 -31 31q-33 0 -33 -31v-985z" />
<glyph unicode="I" horiz-adv-x="325" d="M131 33q0 -33 33 -33q31 0 31 33v985q0 31 -31 31q-33 0 -33 -31v-985z" />
<glyph unicode="J" d="M135 178q12 -76 71.5 -127t141.5 -51q45 0 84 17.5t68.5 46t46 67.5t16.5 84v801q0 31 -31 31q-33 0 -32 -31v-801q0 -63 -44 -107.5t-108 -44.5q-55 0 -96 33t-51 82q-6 31 -35 31q-35 0 -31 -31z" />
<glyph unicode="K" horiz-adv-x="653" d="M131 33q0 -33 33 -33q31 0 31 33v461l241 -465q12 -29 45 -29h6q35 0 19 33l-256 491l250 492q16 33 -19 33h-6q-33 0 -45 -29l-235 -465v463q0 31 -31 31q-33 0 -33 -31v-985z" />
<glyph unicode="L" horiz-adv-x="595" d="M131 51q0 -51 51 -51h252q31 0 31 33q0 31 -31 30h-239v953q0 31 -31 31q-33 0 -33 -31v-965z" />
<glyph unicode="M" horiz-adv-x="868" d="M131 33q0 -33 33 -33q31 0 31 33v862l194 -344q23 -35 45 -35q23 0 45 35l195 344v-862q0 -33 33 -33q31 0 30 33v991q0 25 -24 25q-23 0 -37 -21l-242 -426l-241 426q-14 20 -37 21q-25 0 -25 -25v-991z" />
<glyph unicode="N" horiz-adv-x="718" d="M129 33q0 -33 33 -33q31 0 31 33v817l329 -825q10 -25 37 -25t27 27v991q0 31 -31 31q-33 0 -33 -31v-819l-329 825q-10 25 -37 25t-27 -27v-989z" />
<glyph unicode="O" d="M133 217q0 -45 17.5 -84t46 -67.5t67.5 -46t84 -17.5t84 17.5t68.5 46t46 67.5t16.5 84v612q0 45 -16.5 84t-46 69t-68.5 46t-84 16t-84 -16t-67.5 -46t-46 -69t-17.5 -84v-612zM197 217v612q0 63 44 107.5t107 44.5t107.5 -44t44.5 -108v-612q0 -63 -44 -107t-108 -44 q-63 0 -107 44t-44 107z" />
<glyph unicode="P" horiz-adv-x="690" d="M131 35q0 -33 33 -33q31 0 31 33v377h129q49 0 92 18.5t75.5 51t51 75.5t18.5 92l-2 162q0 49 -18.5 92t-51 76t-75.5 51.5t-92 18.5h-140q-51 0 -51 -52v-962zM195 475v510h129q72 0 123 -51t51 -123v-162q0 -72 -51.5 -123t-122.5 -51h-129z" />
<glyph unicode="Q" horiz-adv-x="724" d="M131 215q0 -45 17.5 -84t46 -67.5t67.5 -46t84 -17.5q47 0 96 23l17 8l69 -58q8 -8 21 -8q16 0 24 12q20 25 -4 46l-59 49l14 20q37 55 37 123v612q0 45 -16.5 84t-46 69t-68.5 46t-84 16t-84 -16t-67.5 -46t-46 -69t-17.5 -84v-612zM197 213v612q0 63 44 107.5t107 44.5 t107.5 -44t44.5 -108v-610q0 -41 -19 -76l-16 -28l-76 61l-41 -49l78 -64l-82 2q-59 4 -103 47.5t-44 104.5z" />
<glyph unicode="R" horiz-adv-x="706" d="M129 35q0 -33 33 -33q31 0 31 33v377h149l152 -381q14 -31 47 -31q14 0 20 8t0 23l-155 391l22 12q61 31 95 87.5t34 125.5v164q0 49 -18.5 92t-51 76t-75.5 51.5t-93 18.5h-139q-51 0 -51 -52v-962zM193 475v510h129q72 0 123 -51t51 -123v-164q0 -72 -51.5 -123 t-122.5 -51z" />
<glyph unicode="S" d="M129 827q0 -51 15.5 -94t40 -80t55 -70.5t63.5 -64.5l19 -18q55 -55 89.5 -96.5t53 -74t26 -60t7.5 -54.5q0 -63 -44 -107.5t-108 -44.5q-53 0 -95 34t-52 83q-6 31 -35 31q-35 0 -31 -31q12 -78 73.5 -128t139.5 -50q45 0 84 17.5t68.5 46t46 67.5t16.5 84 q0 51 -15.5 94t-40 80t-55 70.5t-63.5 64.5l-18 19q-55 55 -90 96t-53.5 74t-25.5 60.5t-7 53.5q0 63 44 107.5t107 44.5q53 0 95 -34t53 -83q6 -31 36 -30q33 0 29 30q-12 78 -73.5 128t-139.5 50q-45 0 -84 -16t-67.5 -46t-46 -69t-17.5 -84z" />
<glyph unicode="T" horiz-adv-x="667" d="M131 1016q0 -33 33 -33h137v-950q0 -33 33 -33q31 0 31 33v950h139q29 0 33 33q0 31 -31 31h-342q-33 0 -33 -31z" />
<glyph unicode="U" d="M133 215q0 -45 17.5 -84t46 -67.5t67.5 -46t84 -17.5t84 17.5t68.5 46t46 67.5t16.5 84v801q0 31 -31 31q-32 0 -32 -31v-801q0 -63 -44 -107.5t-108 -44.5q-63 0 -107 44.5t-44 107.5v801q0 31 -31 31q-33 0 -33 -31v-801z" />
<glyph unicode="V" horiz-adv-x="804" d="M139 1016l219 -991q6 -25 31 -25t31 25l246 993q10 31 -25 31q-31 0 -41 -31l-209 -846l-186 844q-10 33 -41 33q-35 0 -25 -33z" />
<glyph unicode="W" horiz-adv-x="1167" d="M139 1016l219 -991q6 -25 31 -25t31 25l158 643l141 -643q6 -25 31 -25t30 25l246 993q10 31 -22 31q-31 0 -41 -31l-209 -846l-127 573q-6 37 -45 37q-41 0 -47 -37l-144 -573l-186 844q-10 33 -41 33q-35 0 -25 -33z" />
<glyph unicode="X" horiz-adv-x="823" d="M145 33q-12 -33 21 -33h2q33 0 47 31l197 436l196 -436q14 -31 47 -31h2q33 0 21 33l-223 491l223 494q14 31 -21 31h-2q-33 0 -47 -31l-196 -436l-197 436q-14 31 -47 31h-2q-35 0 -21 -31l224 -494z" />
<glyph unicode="Y" horiz-adv-x="819" d="M145 1018l234 -588v-397q0 -33 33 -33q31 0 30 33v397l234 586q12 33 -23 33t-47 -33l-196 -494l-197 496q-14 31 -45 31q-16 0 -22.5 -8.5t-0.5 -22.5z" />
<glyph unicode="Z" horiz-adv-x="677" d="M131 39q0 -39 39 -39h346q31 0 31 33q0 31 -31 30h-323l350 895q4 8 4 19v29q0 39 -39 38h-344q-33 0 -33 -30q0 -33 33 -33h321l-350 -895q-4 -8 -4 -18v-29z" />
<glyph unicode="[" horiz-adv-x="509" d="M131 -84q0 -51 51 -51h166q31 0 31 31q0 33 -31 32h-153v1186h153q31 0 31 33q0 31 -31 31h-166q-51 0 -51 -52v-1210z" />
<glyph unicode="\" horiz-adv-x="585" d="M135 1163l271 -1276q4 -23 26 -22q23 0 19 22l-271 1276q-3 23 -26 23t-19 -23z" />
<glyph unicode="]" horiz-adv-x="509" d="M131 -104q0 -31 33 -31h164q51 0 51 51v1210q0 51 -51 52h-164q-33 0 -33 -31q0 -33 33 -33h151v-1186h-151q-33 0 -33 -32z" />
<glyph unicode="^" horiz-adv-x="462" d="M137 891q-8 -12 8 -12q12 0 21 12l65 137l66 -137q8 -12 20 -12q16 0 9 12l-68 137q-7 16 -27 16q-23 0 -28 -18z" />
<glyph unicode="_" horiz-adv-x="860" d="M131 31q0 -33 33 -33h532q31 0 31 33q0 31 -31 30h-532q-33 0 -33 -30z" />
<glyph unicode="`" horiz-adv-x="456" d="M152 987l145 -149q4 -4 8 -4q2 0 10 4q10 10 0 18l-125 166q-6 12 -20 12q-8 0 -16 -8q-25 -16 -2 -39z" />
<glyph unicode="a" horiz-adv-x="665" d="M131 162q0 -72 50 -117t120 -45q35 0 68.5 14.5t58.5 30.5l43 27v-39q0 -33 33 -33q31 0 31 33v555q0 117 -51.5 184.5t-139.5 67.5h-2q-74 0 -124 -49.5t-62 -118.5q-4 -31 30 -31q29 0 35 31q10 53 49 78.5t74 25.5q37 0 61.5 -18.5t39 -46t20.5 -60.5t6 -63v-107 l-20 -6q-53 -14 -110.5 -41.5t-104 -67.5t-76 -91.5t-29.5 -112.5zM195 158q0 49 21.5 88t55 69.5t75.5 53t83 37.5l37 14l4 -246l-6 -8q-6 -6 -21.5 -22.5t-37 -34t-49 -30.5t-58.5 -13q-51 0 -77.5 28.5t-26.5 63.5z" />
<glyph unicode="b" horiz-adv-x="659" d="M131 33q0 -33 33 -33h8q23 0 23 25v22l38 -16q23 -10 57 -20.5t68 -10.5q82 0 126 45t44 131v481q0 74 -46 129.5t-124 55.5q-68 0 -120 -31l-43 -25v306q0 31 -31 30q-33 0 -33 -30v-1059zM195 174v483q0 23 13 43.5t34.5 37t46 26.5t45.5 10q70 0 100.5 -27.5 t30.5 -89.5v-479q0 -117 -109 -117q-29 0 -57.5 10.5t-52 27t-37.5 36t-14 39.5z" />
<glyph unicode="c" horiz-adv-x="657" d="M131 197q0 -82 57.5 -139.5t139.5 -57.5q78 0 130 44t64 122q4 31 -28 31q-31 0 -37 -31q-10 -47 -45 -75t-84 -28q-55 0 -94 39t-39 95v444q0 55 38.5 94t94.5 39q47 0 82.5 -28.5t46.5 -73.5q6 -31 37 -31q33 0 28 31q-12 72 -66.5 119t-127.5 47q-82 0 -139.5 -57.5 t-57.5 -139.5v-444z" />
<glyph unicode="d" horiz-adv-x="659" d="M131 178q0 -86 44 -131t126 -45q35 0 68.5 10.5t56.5 20.5l39 16v-22q0 -25 24 -25h9q31 0 30 33v1059q0 31 -30 30q-33 -4 -33 -32v-306l-43 25q-51 31 -121 31q-37 0 -68.5 -15.5t-54 -40t-35 -57.5t-12.5 -70v-481zM195 182v482q0 61 30.5 88.5t100.5 27.5 q23 0 46 -10t44.5 -26.5t35 -37t13.5 -42.5v-486q0 -20 -14.5 -39.5t-37 -36t-52 -26.5t-58.5 -10q-109 0 -108 116z" />
<glyph unicode="e" horiz-adv-x="657" d="M133 197q0 -82 57.5 -139.5t139.5 -57.5q78 0 130 44t64 122q4 31 -28 31q-31 0 -37 -31q-10 -47 -45 -76t-84 -29q-55 0 -94 39t-39 95v239l278 2q51 0 51 51v154q0 82 -57 139.5t-139 57.5t-139.5 -57.5t-57.5 -139.5v-444zM195 496l2 143q0 55 38.5 94t94.5 39 q55 0 94 -39t39 -94v-143h-268z" />
<glyph unicode="f" horiz-adv-x="571" d="M129 807q0 -33 33 -33h47v-743q0 -33 33 -33q31 0 30 33v743h121q31 0 31 33q0 31 -31 31h-121v125q0 39 27 66.5t66 27.5h43q31 0 30 33q0 31 -30 30h-43q-66 0 -111 -45t-45 -110v-127h-47q-33 0 -33 -31z" />
<glyph unicode="g" horiz-adv-x="659" d="M131 295q0 -86 44 -131t126 -45q35 0 68.5 10t56.5 21l39 16v-244q0 -55 -39 -94t-94 -39q-66 0 -107 53q-20 29 -49 29q-16 0 -22.5 -8t0.5 -23q25 -53 71.5 -83.5t106.5 -30.5q82 0 139 57t57 139v887q0 31 -30 31h-6q-27 0 -27 -27v-27l-43 25q-51 31 -121 31 q-37 0 -68.5 -15.5t-54 -40t-35 -57.5t-12.5 -70v-364zM195 299v365q0 61 30.5 88.5t100.5 27.5q23 0 46 -10t44.5 -26.5t35 -37t13.5 -42.5v-369q0 -20 -14.5 -39.5t-37 -36t-52 -27t-58.5 -10.5q-109 0 -108 117z" />
<glyph unicode="h" horiz-adv-x="659" d="M131 33q0 -33 33 -33q31 0 31 33v626q0 23 13 43.5t34.5 37t46 26.5t45.5 10q70 0 100.5 -27.5t30.5 -89.5v-626q0 -33 33 -33q31 0 30 33v624q0 74 -46 129.5t-124 55.5q-68 0 -120 -31l-43 -25v306q0 31 -31 30q-33 0 -33 -30v-1059z" />
<glyph unicode="i" horiz-adv-x="337" d="M131 1106q0 -16 10.5 -26.5t26.5 -10.5t26.5 10.5t10.5 26.5t-10.5 26.5t-26.5 10.5t-26.5 -10.5t-10.5 -26.5zM135 33q0 -33 33 -33q31 0 31 33v776q0 31 -31 31q-33 0 -33 -31v-776z" />
<glyph unicode="j" horiz-adv-x="374" d="M-135 -137q-6 -8 0 -23q23 -53 71 -83.5t107 -30.5q82 0 139.5 57t57.5 139v887q0 31 -31 31q-33 0 -33 -31v-887q0 -55 -39 -94t-94 -39q-68 0 -106 53q-10 12 -21.5 20.5t-28.5 8.5q-16 0 -22 -8zM170 1106q0 -16 10.5 -26.5t26.5 -10.5t26.5 10.5t10.5 26.5 t-10.5 26.5t-26.5 10.5t-26.5 -10.5t-10.5 -26.5z" />
<glyph unicode="k" horiz-adv-x="598" d="M129 35q0 -33 33 -33q31 0 31 33v381l188 -385q14 -29 47 -29h2q35 0 21 31l-207 424l180 352q16 33 -18 33h-7q-33 0 -45 -29l-161 -315v596q0 31 -31 30q-33 0 -33 -30v-1059z" />
<glyph unicode="l" horiz-adv-x="325" d="M131 33q0 -33 33 -33q31 0 31 33v1059q0 31 -31 30q-33 0 -33 -30v-1059z" />
<glyph unicode="m" horiz-adv-x="993" d="M129 35q0 -33 33 -33q31 0 31 33v627q0 23 13 43t34.5 36.5t46 26.5t45.5 10q70 0 100.5 -27.5t30.5 -88.5v-627q0 -33 33 -33q31 0 30 33v627q0 23 13.5 43t35 36.5t46 26.5t45.5 10q70 0 100.5 -27.5t30.5 -88.5v-627q0 -33 32 -33q31 0 31 33v624q0 37 -12 70 t-34.5 57.5t-54.5 40t-69 15.5q-61 0 -103 -19.5t-65 -40.5l-20 -18l-19 20q-29 33 -63.5 45.5t-63.5 12.5q-68 0 -120 -31l-43 -25v29q0 27 -27 27h-4q-33 0 -33 -31v-776z" />
<glyph unicode="n" horiz-adv-x="659" d="M131 35q0 -33 33 -33q31 0 31 33v627q0 23 13 43t34.5 36.5t46 26.5t45.5 10q70 0 100.5 -27.5t30.5 -88.5v-627q0 -33 33 -33q31 0 30 33v624q0 37 -12 70t-34.5 57.5t-54.5 40t-69 15.5q-68 0 -120 -31l-43 -25v29q0 27 -27 27h-4q-33 0 -33 -31v-776z" />
<glyph unicode="o" horiz-adv-x="657" d="M131 199q0 -82 57.5 -139.5t139.5 -57.5t139 57.5t57 139.5v444q0 82 -57 139.5t-139 57.5t-139.5 -57.5t-57.5 -139.5v-444zM197 199v444q0 55 38.5 94t94.5 39q55 0 94 -39t39 -94v-444q0 -55 -39 -94t-94 -39t-94 38.5t-39 94.5z" />
<glyph unicode="p" horiz-adv-x="659" d="M131 -252q0 -31 33 -31q31 0 31 31v305l43 -24q53 -31 120 -31q37 0 69 15.5t54.5 40t34.5 57t12 69.5v482q0 86 -44 132t-126 46q-35 0 -68.5 -10.5t-56.5 -20.5l-38 -16v24q0 23 -23 23h-8q-33 0 -33 -31v-1061zM195 178v484q0 20 14 39.5t37.5 36t52.5 26.5t57 10 q109 0 109 -117v-479q0 -61 -31 -89t-100 -28q-20 0 -45 10.5t-46.5 27t-34.5 38t-13 41.5z" />
<glyph unicode="q" horiz-adv-x="659" d="M131 182q0 -37 12.5 -69.5t35 -57t54 -40t68.5 -15.5q70 0 121 31l43 24v-305q0 -31 33 -31q31 0 30 31v1061q0 31 -30 31l-9 -2q-25 0 -24 -23v-24l-39 16q-23 10 -56.5 20.5t-68.5 10.5q-82 0 -126 -45t-44 -131v-482zM195 182v482q0 116 106 116h2q29 0 58.5 -10 t52 -26.5t37 -36t14.5 -39.5v-486q0 -20 -13.5 -41.5t-35 -38t-45 -26.5t-45.5 -10q-70 0 -100.5 27.5t-30.5 88.5z" />
<glyph unicode="r" horiz-adv-x="655" d="M133 33q0 -33 33 -33q31 0 31 33v626q0 23 13 43.5t34.5 37t46 26.5t45.5 10q88 0 115 -47q18 -29 45 -29q33 0 22 31q-18 47 -59 76h-2q-45 33 -97 33q-68 0 -120 -31l-43 -25v29q0 27 -27 27h-4q-33 0 -33 -31v-776z" />
<glyph unicode="s" horiz-adv-x="659" d="M131 631q0 -72 44 -121t136 -115l25 -18q51 -35 89 -71t38 -93q0 -66 -37 -106.5t-96 -40.5q-47 0 -83 28.5t-46 73.5q-6 31 -35 31q-35 0 -31 -31q12 -72 66.5 -119t128.5 -47q94 0 145 58.5t51 150.5q0 39 -13 69.5t-37.5 58.5t-57.5 53t-72 54l-27 19 q-51 35 -87.5 70.5t-36.5 93.5q0 66 36.5 106.5t96.5 40.5q47 0 82.5 -28.5t46.5 -73.5q6 -31 37 -31q33 0 28 31q-12 72 -66.5 119t-127.5 47q-94 0 -145.5 -58.5t-51.5 -150.5z" />
<glyph unicode="t" horiz-adv-x="571" d="M129 809q0 -33 33 -33h47v-620q0 -66 45 -111t111 -45h43q31 0 30 33q0 31 -30 30h-43q-39 0 -66 27t-27 66v620h121q31 0 31 33q0 31 -31 31h-121v188q0 31 -30 31q-33 0 -33 -31v-188h-47q-33 0 -33 -31z" />
<glyph unicode="u" horiz-adv-x="659" d="M131 182q0 -37 12.5 -69.5t35 -57t54 -40t68.5 -15.5q70 0 121 31l43 24v-26q0 -29 29 -29h4q31 0 30 33v776q0 31 -30 31q-33 0 -33 -31v-629q0 -20 -13.5 -41.5t-35 -38t-45 -27t-45.5 -10.5q-70 0 -100.5 28t-30.5 89v629q0 31 -31 31q-33 0 -33 -31v-627z" />
<glyph unicode="v" horiz-adv-x="702" d="M135 807l166 -768q4 -16 17.5 -27.5t31.5 -11.5q16 0 29.5 11.5t17.5 27.5l166 770q6 31 -24 31q-33 0 -39 -31l-150 -692l-149 690q-6 33 -39 33t-27 -33z" />
<glyph unicode="w" horiz-adv-x="1026" d="M137 807l166 -768q4 -16 17.5 -27.5t31.5 -11.5q16 0 29.5 11.5t17.5 27.5l115 530l115 -530q4 -16 17 -27.5t32 -11.5q16 0 29.5 11.5t17.5 27.5l166 768q6 33 -27 33q-35 0 -41 -33l-149 -690l-107 497q-4 18 -17 29.5t-32 11.5h-10q-18 0 -31.5 -11t-17.5 -30 l-107 -497l-149 690q-6 33 -39 33t-27 -33z" />
<glyph unicode="x" horiz-adv-x="688" d="M145 33q-12 -33 21 -33q16 0 29.5 8t17.5 23l131 309l131 -309q4 -14 17.5 -22.5t29.5 -8.5q33 0 21 33l-164 387l164 387q12 33 -21 33q-16 0 -29.5 -8.5t-17.5 -22.5l-131 -309l-131 309q-4 14 -17.5 22.5t-29.5 8.5q-33 0 -21 -33l164 -387z" />
<glyph unicode="y" horiz-adv-x="659" d="M131 303q0 -37 12.5 -69.5t35 -57t54 -40t68.5 -15.5q70 0 121 31l43 24v-252q0 -55 -39 -94t-94 -39q-66 0 -107 53q-20 29 -49 29q-16 0 -22.5 -8t0.5 -23q25 -53 71.5 -83.5t106.5 -30.5q82 0 139 57t57 139v887q0 31 -30 31q-33 -4 -33 -33v-510q0 -20 -13.5 -41.5 t-35 -37t-45 -26t-45.5 -10.5q-70 0 -100.5 28t-30.5 89v510q0 31 -31 31q-33 0 -33 -31v-508z" />
<glyph unicode="z" horiz-adv-x="608" d="M131 47q0 -47 47 -47h266q31 0 31 33q0 31 -31 30h-264l291 672q4 12 4 21v37q0 47 -47 47h-264q-33 0 -33 -31q0 -33 33 -33h264l-293 -672q-4 -12 -4 -20v-37z" />
<glyph unicode="{" horiz-adv-x="622" d="M129 528q0 -16 16 -26l127 -72v-348q0 -39 14.5 -75t39 -63.5t58.5 -45t73 -23.5q31 0 30 29q0 31 -30 35q-53 10 -87 50t-34 93v367q0 18 -17 28l-96 53l99 60q16 10 16 26v359q0 53 34 93t87 50q31 4 30 35q0 29 -30 29q-39 -6 -73 -23.5t-58.5 -45.5t-39 -63.5 t-14.5 -74.5v-342l-129 -78q-16 -10 -16 -27z" />
<glyph unicode="|" horiz-adv-x="307" d="M131 -119q0 -23 23 -22q22 -1 22 22v1305q0 23 -22 22q-23 0 -23 -22v-1305z" />
<glyph unicode="}" horiz-adv-x="622" d="M131 -104q0 -29 31 -29q39 6 72.5 23.5t58 45t39 63.5t14.5 75v342l129 78q16 10 17 26q-1 19 -17 29l-127 72v348q0 39 -14.5 74.5t-39 63.5t-58 45t-72.5 24q-31 0 -31 -29q0 -31 31 -35q53 -10 87 -50t34 -93v-367q0 -18 16 -29l96 -53l-98 -59q-16 -10 -16 -27v-360 q0 -53 -34 -93t-87 -51q-31 -4 -31 -34z" />
<glyph unicode="~" horiz-adv-x="626" d="M131 453q0 -16 16 -17q14 0 15 17q4 31 19.5 57.5t43.5 26.5q25 0 43.5 -15.5t37 -35t41 -35t54.5 -15.5q41 0 66 31t29 84q0 16 -17 16q-16 0 -16 -16q-4 -33 -19.5 -58.5t-44.5 -25.5q-25 0 -43 15.5t-36.5 35t-41 34.5t-53.5 15q-41 0 -65.5 -30.5t-28.5 -83.5z" />
<glyph unicode="&#xa1;" horiz-adv-x="337" d="M131 825q0 -16 10.5 -26.5t26.5 -10.5t26.5 10.5t10.5 26.5t-10.5 26.5t-26.5 10.5t-26.5 -10t-10.5 -27zM145 -242q0 -23 23 -22q22 -1 22 22v817q0 23 -22 23q-23 0 -23 -23v-817z" />
<glyph unicode="&#xa2;" horiz-adv-x="657" d="M129 301q0 -74 47 -129t119 -66v-112q0 -31 33 -31q31 0 30 31v112q61 8 105.5 50.5t56.5 113.5q4 31 -28 31q-31 0 -37 -31q-12 -51 -47 -76.5t-80 -25.5q-55 0 -94 39t-39 94v444q0 55 38.5 94.5t94.5 39.5q47 0 82.5 -29t46.5 -74q6 -31 37 -31q33 0 28 31 q-10 63 -55 108.5t-109 55.5v113q0 31 -30 30q-33 0 -33 -30v-113q-72 -10 -119 -65.5t-47 -129.5v-444z" />
<glyph unicode="&#xa3;" horiz-adv-x="698" d="M129 53q0 -51 51 -51h352q31 0 31 33q0 31 -31 31h-374q49 45 88 98q33 45 59.5 103.5t26.5 121.5h198q31 0 31 33q0 31 -31 31h-200q0 61 -21.5 111t-47 94t-47 86t-21.5 92l2 -2q0 16 8 42.5t26.5 51t49 43t73.5 18.5q53 0 94 -37t52 -90q4 -31 34 -31q33 0 29 31 q-10 80 -68.5 136.5t-138.5 56.5q-66 0 -109.5 -25.5t-69 -60.5t-36 -72t-10.5 -59q0 -59 22.5 -104.5t49 -88.5t49 -88t22.5 -104h-110q-33 0 -33 -31q0 -33 33 -33h110q0 -37 -14 -73.5t-34.5 -68.5t-43 -58.5t-37.5 -41.5q-14 -18 -14 -38v-56z" />
<glyph unicode="&#xa4;" horiz-adv-x="661" d="M141 342q8 -4 11 -4q6 0 10 4l53 53l27 -16q41 -25 88 -25q49 0 88 25l26 16l54 -53q8 -4 10 -4q6 0 10 4q10 10 0 20l-53 54l16 26q25 41 25 88q0 49 -25 88l-16 27l53 53q10 10 0 21q-2 4 -10 4q-6 0 -10 -4l-54 -53l-26 16q-39 25 -88 25q-47 0 -88 -25l-27 -16 l-53 53q-2 4 -10 4q-6 0 -11 -4q-10 -10 0 -21l54 -53l-17 -27q-25 -39 -24 -88q0 -47 24 -88l17 -26l-54 -54q-10 -10 0 -20zM178 530q0 10 1 18.5t3 18.5q10 41 38 69t69 38q10 2 18 3t19 1q18 0 36 -6q41 -10 69 -38t38 -69q2 -10 3 -18t1 -19q0 -10 -1 -18t-3 -18 q-10 -41 -38 -69t-69 -38l3 4q-18 -6 -37 -6q-10 0 -18.5 1t-18.5 3q-41 10 -68.5 38t-38.5 69q-6 18 -6 36z" />
<glyph unicode="&#xa5;" horiz-adv-x="819" d="M145 1014l209 -527h-143q-33 0 -33 -30q0 -33 33 -33h168v-158h-168q-33 0 -33 -30q0 -33 33 -33h168v-174q0 -33 33 -33q31 0 30 33v174h181q31 0 30 33q0 31 -30 30h-181v158h181q31 0 30 33q0 31 -30 30h-156l207 527q6 14 -0.5 22t-20.5 8q-33 0 -47 -30l-196 -496 l-197 496q-14 31 -45 30q-16 0 -22.5 -8t-0.5 -22z" />
<glyph unicode="&#xa6;" horiz-adv-x="307" d="M131 -131q0 -23 23 -23q22 0 22 23v516q0 23 -22 23q-23 0 -23 -23v-516zM131 655q0 -23 23 -22q22 -1 22 22v516q0 23 -22 23q-23 0 -23 -23v-516z" />
<glyph unicode="&#xa7;" horiz-adv-x="671" d="M129 711q0 -51 17.5 -95.5t44 -81t59.5 -70.5t63 -65q49 -49 82 -88t51.5 -69.5t25.5 -57t7 -53.5q0 -59 -43 -102t-102 -43q-51 0 -91 31.5t-50 78.5q-6 29 -33 29q-33 0 -29 -29q12 -72 69.5 -121t133.5 -49q86 0 145.5 59.5t59.5 145.5q0 55 -19 100q19 41 19 86 q0 53 -17.5 96.5t-44 80t-59.5 70.5t-64 65q-49 49 -81.5 88t-51 69.5t-26 57t-7.5 53.5q0 59 43 102t103 43q51 0 91 -31.5t50 -78.5q8 -29 35 -29q12 0 20.5 8.5t6.5 20.5q-6 37 -23.5 67.5t-45.5 53t-62.5 36t-71.5 13.5q-86 0 -145.5 -59.5t-59.5 -145.5q0 -53 18 -100 q-18 -39 -18 -86zM193 711v6q27 -37 58.5 -70t61.5 -63q49 -49 82 -88t51.5 -70t25.5 -57.5t7 -53.5v-6q-27 37 -58.5 70t-62.5 63q-49 49 -81.5 88t-51 70t-25.5 57.5t-7 53.5z" />
<glyph unicode="&#xa9;" horiz-adv-x="833" d="M131 541q0 -59 22.5 -111.5t60.5 -90.5t90 -60.5t112 -22.5q59 0 111.5 22.5t90 60.5t60 90t22.5 112q0 59 -22.5 111.5t-60 90t-90 60t-111.5 22.5t-111.5 -22.5t-90.5 -60t-60.5 -90t-22.5 -111.5zM178 541q0 49 18.5 92t51.5 75.5t76 51t92 18.5t92 -18.5t75.5 -51 t51 -75.5t18.5 -92t-18.5 -92t-51 -76t-75.5 -51.5t-92 -18.5t-92 18.5t-76 51.5t-51.5 76t-18.5 92zM328 412q0 -37 25.5 -62.5t62.5 -25.5q33 0 56.5 21.5t29.5 51.5q4 12 -10 13q-12 0 -17 -13q-6 -20 -21.5 -33.5t-37.5 -13.5q-27 0 -45.5 18.5t-18.5 45.5v250 q0 27 18.5 44t45.5 17v-2q23 0 38 -13.5t21 -33.5q4 -12 17 -12q14 0 10 12q-6 31 -29.5 52.5t-56.5 21.5q-37 0 -62.5 -26t-25.5 -62v-250z" />
<glyph unicode="&#xaa;" horiz-adv-x="514" d="M131 614q0 -39 27.5 -69.5t77.5 -30.5q20 0 38.5 7t32.5 18q18 10 35 22v-26q0 -20 20 -21q18 0 19 21v346q0 66 -30 111.5t-89 45.5q-53 0 -80.5 -34.5t-34.5 -69.5q-4 -18 19 -19q16 0 20 19q6 35 30 50t46 15q33 0 56.5 -29.5t23.5 -88.5v-66q-59 -16 -104 -45 q-41 -23 -74 -60.5t-33 -95.5zM168 610q0 45 26.5 76t59.5 51q37 23 86 37l2 -151q-14 -20 -33 -35q-16 -12 -34.5 -23.5t-41.5 -11.5q-35 0 -50 19.5t-15 37.5z" />
<glyph unicode="&#xab;" horiz-adv-x="1267" d="M168 526.5q0 -22.5 29 -43.5l403 -262q10 -8 21 -8q16 0 16 27v14q0 31 -23 43l-352 229l352 230q23 12 23 43v14q0 27 -16 27q-8 0 -21 -6l-403 -265q-29 -20 -29 -42.5zM667.5 526.5q0.5 -22.5 28.5 -43.5l404 -262q10 -8 20 -8q16 0 17 27v14q0 31 -23 43l-352 229 l352 230q23 12 23 43v14q0 27 -17 27q-8 0 -20 -6l-404 -265q-29 -20 -28.5 -42.5z" />
<glyph unicode="&#xad;" horiz-adv-x="614" d="M131 524q0 -33 33 -32h289q30 -1 30 32q0 31 -30 31h-289q-33 0 -33 -31z" />
<glyph unicode="&#xae;" horiz-adv-x="628" d="M131 864q0 -76 53.5 -129t128.5 -53q76 0 129.5 53t53.5 129t-53.5 129.5t-129.5 53.5t-129 -53.5t-53 -129.5zM164 862q0 63 44 107.5t107 44.5t107.5 -44t44.5 -108q0 -43 -22.5 -78.5t-57.5 -56.5l-2 2q-31 -18 -70 -18q-63 0 -107 44t-44 107zM272 729h17v107h39 l43 -107h14l-43 111l8 4q33 16 33 53v43q0 27 -17.5 44t-43.5 17h-50v-272zM289 850v133h33q18 0 31.5 -13.5t13.5 -31.5v-43q0 -18 -13.5 -31.5t-31.5 -13.5h-33zM385 729h2h-2z" />
<glyph unicode="&#xb0;" horiz-adv-x="464" d="M131 946q0 -41 29.5 -70.5t70.5 -29.5t71 29.5t30 70.5t-30 71t-71 30t-70.5 -30t-29.5 -71zM164 946q0 29 19.5 48.5t47.5 19.5q29 0 48.5 -19.5t19.5 -48.5t-19.5 -48t-48.5 -19t-48 19.5t-19 47.5z" />
<glyph unicode="&#xb1;" horiz-adv-x="761" d="M131 223q0 -33 33 -33h434q31 0 31 33q0 31 -31 31h-434q-33 0 -33 -31zM131 635q0 -33 33 -33h184v-184q0 -33 33 -33q31 0 31 33v184h186q31 0 31 33q0 31 -31 31h-186v186q0 31 -31 31q-33 0 -33 -31v-186h-184q-33 0 -33 -31z" />
<glyph unicode="&#xb4;" horiz-adv-x="456" d="M139 856q-10 -10 2 -18q4 -4 9 -4q4 0 8 4l145 149q20 20 0 39q-12 8 -18 8q-15 0 -21 -12z" />
<glyph unicode="&#xb5;" horiz-adv-x="681" d="M135 82q0 -23 23 -23q20 0 20 23v233l60 -32q51 -29 104 -29t104 29l60 32v-39q0 -23 22 -22q20 0 21 22v658q0 20 -21 20q-22 -4 -22 -22v-500q0 -31 -15.5 -56.5t-39 -43t-52 -27.5t-57.5 -10q-27 0 -56.5 10t-53 27.5t-39 43t-15.5 56.5v500q0 20 -20 20 q-23 0 -23 -20v-850z" />
<glyph unicode="&#xb6;" d="M131 758q0 -25 17.5 -42.5t41.5 -17.5h89v-655q0 -12 12 -12t12 12v915h236v-915q0 -12 12 -12t12 12v889q0 51 -51 51l-299 2h-23q-25 0 -42 -17.5t-17 -41.5v-168z" />
<glyph unicode="&#xb7;" horiz-adv-x="337" d="M131 516q0 -16 10.5 -26.5t26.5 -10.5t26.5 10.5t10.5 26.5t-10.5 26.5t-26.5 10.5t-26.5 -10.5t-10.5 -26.5z" />
<glyph unicode="&#xb8;" horiz-adv-x="374" d="M133 -166q0 -14 17 -14q39 4 67.5 23.5t28.5 58.5q0 27 -9.5 44t-21.5 30.5t-21.5 26.5t-9.5 32l-2 -2v12q0 10 -10 10h-6q-18 0 -19 -16v-21q0 -14 10.5 -27.5t24 -27.5t23.5 -28.5t10 -32.5t-14.5 -32.5t-50.5 -19.5q-16 0 -17 -16z" />
<glyph unicode="&#xbb;" horiz-adv-x="1267" d="M131 215q0 -27 16 -27q10 0 21 9l403 262q29 20 29 42.5t-29 43.5l-403 264q-12 6 -21 6q-16 0 -16 -27v-14q0 -29 23 -43l352 -229l-352 -230q-23 -14 -23 -43v-14zM631 215q0 -27 16 -27q10 0 21 9l403 262q29 20 29 42.5t-29 43.5l-403 264q-12 6 -21 6q-16 0 -16 -27 v-14q0 -29 22 -43l353 -229l-353 -230q-23 -14 -22 -43v-14z" />
<glyph unicode="&#xbf;" horiz-adv-x="712" d="M131 2q0 -61 19.5 -108.5t51 -79t71.5 -48t81 -16.5t81 16.5t72 48t51.5 79t19.5 108.5v12q0 10 -11 11h-18q-12 -1 -12 -11v-12q0 -31 -10.5 -66.5t-32 -66.5t-55 -52.5t-83.5 -21.5q-51 0 -84.5 21.5t-55 52.5t-31 66.5t-9.5 66.5q0 78 32 135.5t69.5 110.5t69.5 108.5 t32 124.5v94q0 23 -23 23t-22 -23v-94q0 -70 -32 -119t-69.5 -98t-69.5 -108.5t-32 -153.5zM317 825q0 -16 10.5 -26.5t26.5 -10.5t26.5 10.5t10.5 26.5t-10 26.5t-27 10.5q-16 0 -26.5 -10t-10.5 -27z" />
<glyph unicode="&#xc0;" horiz-adv-x="804" d="M139 33q-6 -33 25 -33q35 0 41 33l57 248h281l57 -248q10 -33 41 -33q35 0 25 33l-234 991q-6 25 -31 25t-30 -25zM279 344l124 533l125 -533h-249zM328 1278l145 -150q4 -4 8 -4q2 0 11 4q10 10 0 19l-125 166q-6 12 -21 12q-8 0 -16 -8q-25 -16 -2 -39z" />
<glyph unicode="&#xc1;" horiz-adv-x="804" d="M139 33q-6 -33 25 -33q35 0 41 33l57 248h281l57 -248q10 -33 41 -33q35 0 25 33l-234 991q-6 25 -31 25t-30 -25zM279 344l124 533l125 -533h-249zM315 1147q-10 -10 2 -19q4 -4 9 -4q4 0 8 4l145 150q20 21 0 39q-12 8 -18 8q-14 0 -21 -12z" />
<glyph unicode="&#xc2;" horiz-adv-x="804" d="M139 33q-6 -33 25 -33q35 0 41 33l57 248h281l57 -248q10 -33 41 -33q35 0 25 33l-234 991q-6 25 -31 25t-30 -25zM279 344l124 533l125 -533h-249zM311 1155q-8 -12 8 -12q12 0 21 12l63 137l66 -137q8 -12 20 -12q16 0 9 12l-66 135q-6 18 -26 19q-23 0 -29 -19z" />
<glyph unicode="&#xc3;" horiz-adv-x="804" d="M139 33q-6 -33 25 -33q35 0 41 33l57 248h281l57 -248q10 -33 41 -33q35 0 25 33l-234 991q-6 25 -31 25t-30 -25zM223 1178q0 -16 17 -17q14 0 14 17q4 31 18 57.5t43 26.5q25 0 43.5 -15.5t37 -35t41 -35t55.5 -15.5q41 0 65.5 31t28.5 86q0 14 -15 14q-16 0 -16 -14 q-4 -33 -19.5 -59.5t-43.5 -26.5q-25 0 -43.5 15.5t-37 35t-41 34.5t-53.5 15q-41 0 -65.5 -30.5t-28.5 -83.5zM279 344l124 533l125 -533h-249z" />
<glyph unicode="&#xc4;" horiz-adv-x="804" d="M139 33q-6 -33 25 -33q35 0 41 33l57 248h281l57 -248q10 -33 41 -33q35 0 25 33l-234 991q-6 25 -31 25t-30 -25zM207 1227q0 -16 10.5 -26.5t26.5 -10.5t26.5 10t10.5 27q0 16 -10.5 26.5t-26.5 10.5t-26.5 -10.5t-10.5 -26.5zM279 344l124 533l125 -533h-249z M522 1227q0 -16 10.5 -26.5t26.5 -10.5t26.5 10t10.5 27q0 16 -10.5 26.5t-26.5 10.5t-26.5 -10.5t-10.5 -26.5z" />
<glyph unicode="&#xc5;" horiz-adv-x="804" d="M139 33q-6 -33 25 -33q35 0 41 33l57 248h281l57 -248q10 -33 41 -33q35 0 25 33l-234 991q-6 25 -31 25t-30 -25zM279 344l124 533l125 -533h-249zM303 1227q0 -41 29.5 -71t70.5 -30t71 30t30 71t-30 70.5t-71 29.5t-70.5 -29.5t-29.5 -70.5zM336 1227q0 29 19 48 t48 19t48.5 -19.5t19.5 -47.5q0 -29 -19.5 -48.5t-48.5 -19.5t-48 19.5t-19 48.5z" />
<glyph unicode="&#xc6;" horiz-adv-x="1083" d="M141 25q-14 -25 15 -25q25 0 39 25l161 329h303v-303q0 -51 52 -51h204q33 0 33 33t-33 33h-194v446h119q31 0 30 33q0 31 -30 30h-119v408h197q32 0 32 33t-32 33h-240q-33 0 -47 -29zM385 416l272 553v-553h-272z" />
<glyph unicode="&#xc7;" d="M131 217q0 -51 19.5 -91t47 -66.5t60.5 -41t57 -14.5q0 -12 10.5 -25.5t23.5 -27.5t23.5 -28.5t10.5 -33.5q0 -18 -14.5 -32.5t-51.5 -18.5q-16 0 -16 -16q0 -14 16 -15q39 4 68 23.5t29 58.5q0 23 -9.5 40.5t-19.5 30.5t-19.5 23.5t-9.5 18.5q37 0 71 13.5t62.5 38 t48 57t25.5 71.5q4 31 -28 31q-31 0 -37 -31q-10 -51 -53.5 -83.5t-96.5 -32.5l-2 -3q-63 0 -107 44.5t-44 107.5v612q0 63 44 107.5t107 44.5q53 0 95 -33t53 -82q6 -31 36 -30q33 0 29 30q-12 78 -72.5 129t-140.5 51q-45 0 -84 -16t-67.5 -46t-46 -69t-17.5 -84v-612z " />
<glyph unicode="&#xc8;" horiz-adv-x="552" d="M131 51q0 -51 51 -51h205q33 0 33 33t-33 33h-194v446h118q31 0 31 33q0 31 -31 30h-118v408h194q33 0 33 33t-33 33h-205q-51 0 -51 -52v-946zM199 1278l145 -150q4 -4 8 -4q2 0 10 4q10 11 0 19l-124 166q-6 12 -21 12q-8 0 -16 -8q-25 -16 -2 -39z" />
<glyph unicode="&#xc9;" horiz-adv-x="552" d="M131 51q0 -51 51 -51h205q33 0 33 33t-33 33h-194v446h118q31 0 31 33q0 31 -31 30h-118v408h194q33 0 33 33t-33 33h-205q-51 0 -51 -52v-946zM186 1147q-10 -10 2 -19q4 -4 9 -4q4 0 8 4l145 150q20 21 0 39q-12 8 -18 8q-14 0 -21 -12z" />
<glyph unicode="&#xca;" horiz-adv-x="552" d="M131 51q0 -51 51 -51h205q33 0 33 33t-33 33h-194v446h118q31 0 31 33q0 31 -31 30h-118v408h194q33 0 33 33t-33 33h-205q-51 0 -51 -52v-946zM182 1155q-8 -12 8 -12q12 0 21 12l63 137l66 -137q8 -12 20 -12q16 0 9 12l-66 135q-6 18 -27 19q-23 0 -28 -19z" />
<glyph unicode="&#xcb;" horiz-adv-x="653" d="M131 1227q0 -16 10.5 -26.5t26.5 -10.5t26.5 10.5t10.5 26.5t-10.5 26.5t-26.5 10.5t-26.5 -10.5t-10.5 -26.5zM180 51q0 -51 51 -51h205q33 0 33 33t-33 33h-194v446h118q31 0 31 33q0 31 -31 30h-118v408h194q33 0 33 33t-33 33h-205q-51 0 -51 -52v-946zM446 1227 q0 -16 10.5 -26.5t26.5 -10.5t26.5 10t10.5 27q0 16 -10.5 26.5t-26.5 10.5t-26.5 -10.5t-10.5 -26.5z" />
<glyph unicode="&#xcc;" horiz-adv-x="456" d="M150 1278l145 -150q4 -4 8 -4q2 0 10 4q10 10 0 19l-125 166q-6 12 -20 12q-8 0 -16 -8q-25 -16 -2 -39zM195 33q0 -33 32 -33q31 0 31 33v985q0 31 -31 31q-33 0 -32 -31v-985z" />
<glyph unicode="&#xcd;" horiz-adv-x="456" d="M139 1147q-10 -10 2 -19q4 -4 9 -4q4 0 8 4l145 150q20 20 0 39q-12 8 -18 8q-15 0 -21 -12zM195 33q0 -33 32 -33q31 0 31 33v985q0 31 -31 31q-33 0 -32 -31v-985z" />
<glyph unicode="&#xce;" horiz-adv-x="462" d="M137 1153q-8 -12 8 -12q12 0 21 12l65 137l66 -137q8 -12 20 -12q16 0 9 12l-68 137q-7 17 -27 17q-23 0 -28 -19zM199 33q0 -33 32 -33q31 0 31 33v985q0 31 -31 31q-33 0 -32 -31v-985z" />
<glyph unicode="&#xcf;" horiz-adv-x="653" d="M133 1225q0 -16 10.5 -26.5t26.5 -10.5t26.5 10t10.5 27q0 16 -10.5 26.5t-26.5 10.5t-26.5 -10.5t-10.5 -26.5zM295 33q0 -33 33 -33q30 0 30 33v985q0 31 -30 31q-33 0 -33 -31v-985zM449 1225q0 -16 10 -26.5t26 -10.5t26.5 10t10.5 27q0 16 -10.5 26.5t-26.5 10.5 t-26 -10.5t-10 -26.5z" />
<glyph unicode="&#xd1;" horiz-adv-x="718" d="M129 33q0 -33 33 -33q31 0 31 33v817l329 -825q10 -25 37 -25t27 27v991q0 31 -31 31q-33 0 -33 -31v-819l-329 825q-10 25 -37 25t-27 -27v-989zM178 1178q0 -16 17 -17q14 0 14 17q4 31 18 57.5t43 26.5q25 0 43.5 -15.5t37 -35t41 -35t54.5 -15.5q41 0 66 31t29 86 q0 14 -15 14q-16 0 -16 -14q-4 -33 -19.5 -59.5t-44.5 -26.5q-25 0 -43 15.5t-36.5 35t-41 34.5t-53.5 15q-41 0 -65.5 -30.5t-28.5 -83.5z" />
<glyph unicode="&#xd2;" d="M131 217q0 -45 17.5 -84t46 -67.5t67.5 -46t84 -17.5t84 17.5t68.5 46t46 67.5t16.5 84v612q0 45 -16.5 84t-46 69t-68.5 46t-84 16t-84 -16t-67.5 -46t-46 -69t-17.5 -84v-612zM195 215v612q0 63 44 107.5t107 44.5t107.5 -44t44.5 -108v-612q0 -63 -44 -107.5 t-108 -44.5q-63 0 -107 44.5t-44 107.5zM252 1274l145 -150q4 -4 9 -4q2 0 10 4q10 10 0 19l-125 166q-6 12 -21 12q-8 0 -16 -8q-25 -16 -2 -39z" />
<glyph unicode="&#xd3;" d="M131 217q0 -45 17.5 -84t46 -67.5t67.5 -46t84 -17.5t84 17.5t68.5 46t46 67.5t16.5 84v612q0 45 -16.5 84t-46 69t-68.5 46t-84 16t-84 -16t-67.5 -46t-46 -69t-17.5 -84v-612zM195 215v612q0 63 44 107.5t107 44.5t107.5 -44t44.5 -108v-612q0 -63 -44 -107.5 t-108 -44.5q-63 0 -107 44.5t-44 107.5zM274 1141q-10 -10 2 -19q4 -4 9 -4q4 0 8 4l145 150q20 21 0 39q-12 8 -18 8q-14 0 -21 -12z" />
<glyph unicode="&#xd4;" d="M131 217q0 -45 17.5 -84t46 -67.5t67.5 -46t84 -17.5t84 17.5t68.5 46t46 67.5t16.5 84v612q0 45 -16.5 84t-46 69t-68.5 46t-84 16t-84 -16t-67.5 -46t-46 -69t-17.5 -84v-612zM195 215v612q0 63 44 107.5t107 44.5t107.5 -44t44.5 -108v-612q0 -63 -44 -107.5 t-108 -44.5q-63 0 -107 44.5t-44 107.5zM254 1151q-8 -12 8 -12q12 0 21 12l63 137l66 -137q8 -12 20 -12q16 0 8 12l-65 135q-6 18 -27 19q-23 0 -29 -19z" />
<glyph unicode="&#xd5;" d="M131 217q0 -45 17.5 -84t46 -67.5t67.5 -46t84 -17.5t84 17.5t68.5 46t46 67.5t16.5 84v612q0 45 -16.5 84t-46 69t-68.5 46t-84 16t-84 -16t-67.5 -46t-46 -69t-17.5 -84v-612zM166 1178q0 -16 16 -17q14 0 15 17q4 31 18 57.5t43 26.5q25 0 43 -15.5t36.5 -35t41 -35 t55.5 -15.5q41 0 65.5 31t28.5 86q0 14 -14 14q-16 0 -16 -14q-4 -33 -19.5 -59.5t-44.5 -26.5q-25 0 -43 15.5t-36.5 35t-41 34.5t-53.5 15q-41 0 -65.5 -30.5t-28.5 -83.5zM195 215v612q0 63 44 107.5t107 44.5t107.5 -44t44.5 -108v-612q0 -63 -44 -107.5t-108 -44.5 q-63 0 -107 44.5t-44 107.5z" />
<glyph unicode="&#xd6;" d="M131 217q0 -45 17.5 -84t46 -67.5t67.5 -46t84 -17.5t84 17.5t68.5 46t46 67.5t16.5 84v612q0 45 -16.5 84t-46 69t-68.5 46t-84 16t-84 -16t-67.5 -46t-46 -69t-17.5 -84v-612zM152 1223q0 -16 10 -26.5t26 -10.5t26.5 10t10.5 27q0 16 -10 26.5t-27 10.5 q-16 0 -26 -10.5t-10 -26.5zM195 215v612q0 63 44 107.5t107 44.5t107.5 -44t44.5 -108v-612q0 -63 -44 -107.5t-108 -44.5q-63 0 -107 44.5t-44 107.5zM467 1223q0 -16 10.5 -26.5t26.5 -10.5t26.5 10t10.5 27q0 16 -10.5 26.5t-26.5 10.5t-26.5 -10.5t-10.5 -26.5z" />
<glyph unicode="&#xd7;" horiz-adv-x="659" d="M154 360q10 -10 22 -10t23 10l131 132l131 -132q10 -10 22 -10t23 10q23 23 0 46l-131 131l131 131q23 22 0 45q-10 10 -23 10q-12 0 -22 -10l-131 -131l-131 131q-10 10 -23 10q-12 0 -22 -10q-23 -23 0 -45l131 -131l-131 -131q-23 -23 0 -46z" />
<glyph unicode="&#xd8;" d="M131 219q0 -37 11.5 -65.5t25.5 -51.5q14 -25 35 -43l-19 -73q-6 -23 17 -23t28 23l13 45q12 -8 28 -15q14 -4 34 -9t44 -5q45 0 84 17.5t68.5 46t46 67.5t16.5 84v612l-71 160l18 74q6 23 -16 22q-23 0 -29 -22l-12 -45q-14 8 -31 14q-33 14 -76 15q-45 0 -84 -16.5 t-67.5 -46.5t-46 -68.5t-17.5 -84.5v-612zM195 215v612q0 63 44 107.5t107 44.5q39 0 68 -14q12 -6 22 -15l-215 -821q-8 10 -12 23q-14 25 -14 63zM260 90l215 823q8 -10 14 -22q4 -10 8.5 -25.5t4.5 -38.5l-2 -614q0 -63 -44 -107.5t-108 -44.5q-20 0 -36.5 5.5t-26.5 9.5 q-14 6 -25 14z" />
<glyph unicode="&#xd9;" d="M133 215q0 -45 17.5 -84t46 -67.5t67.5 -46t84 -17.5t84 17.5t68.5 46t46 67.5t16.5 84v801q0 31 -31 31q-32 0 -32 -31v-801q0 -63 -44 -107.5t-108 -44.5q-63 0 -107 44.5t-44 107.5v801q0 31 -31 31q-33 0 -33 -31v-801zM272 1274l146 -150q4 -4 8 -4q2 0 10 4 q10 11 0 19l-125 166q-6 12 -20 12q-8 0 -17 -8q-25 -16 -2 -39z" />
<glyph unicode="&#xda;" d="M133 215q0 -45 17.5 -84t46 -67.5t67.5 -46t84 -17.5t84 17.5t68.5 46t46 67.5t16.5 84v801q0 31 -31 31q-32 0 -32 -31v-801q0 -63 -44 -107.5t-108 -44.5q-63 0 -107 44.5t-44 107.5v801q0 31 -31 31q-33 0 -33 -31v-801zM260 1143q-10 -10 2 -19q4 -4 8 -4t9 4 l145 150q20 21 0 39q-12 8 -18 8q-14 0 -21 -12z" />
<glyph unicode="&#xdb;" d="M133 215q0 -45 17.5 -84t46 -67.5t67.5 -46t84 -17.5t84 17.5t68.5 46t46 67.5t16.5 84v801q0 31 -31 31q-32 0 -32 -31v-801q0 -63 -44 -107.5t-108 -44.5q-63 0 -107 44.5t-44 107.5v801q0 31 -31 31q-33 0 -33 -31v-801zM258 1153q-8 -12 8 -12q12 0 21 12l63 137 l66 -137q8 -12 20 -12q16 0 8 12l-65 135q-6 18 -27 19q-23 0 -28 -19z" />
<glyph unicode="&#xdc;" d="M133 215q0 -45 17.5 -84t46 -67.5t67.5 -46t84 -17.5t84 17.5t68.5 46t46 67.5t16.5 84v801q0 31 -31 31q-32 0 -32 -31v-801q0 -63 -44 -107.5t-108 -44.5q-63 0 -107 44.5t-44 107.5v801q0 31 -31 31q-33 0 -33 -31v-801zM154 1223q0 -16 10 -26.5t26 -10.5t26.5 10 t10.5 27q0 16 -10 26.5t-27 10.5q-16 0 -26 -10.5t-10 -26.5zM469 1223q0 -16 10.5 -26.5t26.5 -10.5t26.5 10t10.5 27q0 16 -10.5 26.5t-26.5 10.5t-26.5 -10.5t-10.5 -26.5z" />
<glyph unicode="&#xdd;" horiz-adv-x="819" d="M145 1018l234 -588v-397q0 -33 33 -33q31 0 30 33v397l234 586q12 33 -23 33t-47 -33l-196 -494l-197 496q-14 31 -45 31q-16 0 -22.5 -8.5t-0.5 -22.5zM322 1147q-10 -10 2 -19q4 -4 8 -4t8 4l145 150q20 21 0 39q-12 8 -18 8q-14 0 -21 -12z" />
<glyph unicode="&#xe0;" horiz-adv-x="665" d="M135 162q0 -61 45 -111.5t125 -50.5q31 0 61.5 11.5t55.5 27.5q27 16 53 37v-43q0 -33 33 -33q31 0 31 33v555q0 104 -48.5 178t-144.5 74h-4q-45 0 -78 -17.5t-55.5 -44t-35.5 -58.5t-17 -61q-4 -31 30 -30q29 0 33 30q10 59 49 89t76 30q53 0 91 -47t38 -141v-107 q-94 -27 -168 -71q-33 -18 -63.5 -43t-54 -55.5t-38 -68.5t-14.5 -83zM203 156q0 72 43 121t94 79q59 37 137 60v-242h-2q-25 -31 -51 -55q-23 -20 -53.5 -38t-65.5 -18q-53 0 -77.5 31t-24.5 62zM293 1063l145 -150q4 -4 8 -4q2 0 11 4q10 10 0 19l-125 166q-6 12 -21 12 q-8 0 -16 -8q-25 -16 -2 -39z" />
<glyph unicode="&#xe1;" horiz-adv-x="665" d="M135 162q0 -61 45 -111.5t125 -50.5q31 0 61.5 11.5t55.5 27.5q27 16 53 37v-43q0 -33 33 -33q31 0 31 33v555q0 104 -48.5 178t-144.5 74h-4q-45 0 -78 -17.5t-55.5 -44t-35.5 -58.5t-17 -61q-4 -31 30 -30q29 0 33 30q10 59 49 89t76 30q53 0 91 -47t38 -141v-107 q-94 -27 -168 -71q-33 -18 -63.5 -43t-54 -55.5t-38 -68.5t-14.5 -83zM203 156q0 72 43 121t94 79q59 37 137 60l-2 -242q-25 -31 -51 -55q-23 -20 -53.5 -38t-65.5 -18q-53 0 -77.5 31t-24.5 62zM285 930q-10 -10 2 -19q4 -4 8 -4t8 4l146 150q20 21 0 39q-12 8 -19 8 q-14 0 -20 -12z" />
<glyph unicode="&#xe2;" horiz-adv-x="665" d="M135 162q0 -61 45 -111.5t125 -50.5q31 0 61.5 11.5t55.5 27.5q27 16 53 37v-43q0 -33 33 -33q31 0 31 33v555q0 104 -48.5 178t-144.5 74h-4q-45 0 -78 -17.5t-55.5 -44t-35.5 -58.5t-17 -61q-4 -31 30 -30q29 0 33 30q10 59 49 89t76 30q53 0 91 -47t38 -141v-107 q-94 -27 -168 -71q-33 -18 -63.5 -43t-54 -55.5t-38 -68.5t-14.5 -83zM203 156q0 72 43 121t94 79q59 37 137 60l-2 -242q-25 -31 -51 -55q-23 -20 -53.5 -38t-65.5 -18q-53 0 -77.5 31t-24.5 62zM248 938q-8 -12 8 -12q12 0 20 12l64 137l66 -137q8 -12 20 -12q16 0 8 12 l-65 135q-6 18 -27 19q-23 0 -29 -19z" />
<glyph unicode="&#xe3;" horiz-adv-x="665" d="M135 162q0 -61 45 -111.5t125 -50.5q31 0 61.5 11.5t55.5 27.5q27 16 53 37v-43q0 -33 33 -33q31 0 31 33v555q0 104 -48.5 178t-144.5 74h-4q-45 0 -78 -17.5t-55.5 -44t-35.5 -58.5t-17 -61q-4 -31 30 -30q29 0 33 30q10 59 49 89t76 30q53 0 91 -47t38 -141v-107 q-94 -27 -168 -71q-33 -18 -63.5 -43t-54 -55.5t-38 -68.5t-14.5 -83zM160 961q0 -16 16 -17q14 0 14 17q4 31 18.5 57t43.5 26q25 0 43 -15t36.5 -34.5t41 -35t55.5 -15.5q41 0 65.5 31t28.5 86q0 14 -14 14q-16 0 -16 -14q-4 -33 -19.5 -59.5t-44.5 -26.5q-25 0 -43 15.5 t-36.5 34.5t-41 34.5t-53.5 15.5q-41 0 -65.5 -30.5t-28.5 -83.5zM203 156q0 72 43 121t94 79q59 37 137 60l-2 -242q-25 -31 -51 -55q-23 -20 -53.5 -38t-65.5 -18q-53 0 -77.5 31t-24.5 62z" />
<glyph unicode="&#xe4;" horiz-adv-x="665" d="M135 162q0 -61 45 -111.5t125 -50.5q31 0 61.5 11.5t55.5 27.5q27 16 53 37v-43q0 -33 33 -33q31 0 31 33v555q0 104 -48.5 178t-144.5 74h-4q-45 0 -78 -17.5t-55.5 -44t-35.5 -58.5t-17 -61q-4 -31 30 -30q29 0 33 30q10 59 49 89t76 30q53 0 91 -47t38 -141v-107 q-94 -27 -168 -71q-33 -18 -63.5 -43t-54 -55.5t-38 -68.5t-14.5 -83zM145 1010q0 -16 10.5 -26.5t26.5 -10.5t26.5 10t10.5 27q0 16 -10 26.5t-27 10.5q-16 0 -26.5 -10.5t-10.5 -26.5zM203 156q0 72 43 121t94 79q59 37 137 60l-2 -242q-25 -31 -51 -55q-23 -20 -53.5 -38 t-65.5 -18q-53 0 -77.5 31t-24.5 62zM461 1010q0 -16 10.5 -26.5t26.5 -10.5t26.5 10t10.5 27q0 16 -10.5 26.5t-26.5 10.5t-26.5 -10.5t-10.5 -26.5z" />
<glyph unicode="&#xe5;" horiz-adv-x="665" d="M135 162q0 -61 45 -111.5t125 -50.5q31 0 61.5 11.5t55.5 27.5q27 16 53 37v-43q0 -33 33 -33q31 0 31 33v555q0 104 -48.5 178t-144.5 74h-4q-45 0 -78 -17.5t-55.5 -44t-35.5 -58.5t-17 -61q-4 -31 30 -30q29 0 33 30q10 59 49 89t76 30q53 0 91 -47t38 -141v-107 q-94 -27 -168 -71q-33 -18 -63.5 -43t-54 -55.5t-38 -68.5t-14.5 -83zM203 156q0 72 43 121t94 79q59 37 137 60l-2 -242q-25 -31 -51 -55q-23 -20 -53.5 -38t-65.5 -18q-53 0 -77.5 31t-24.5 62zM240 1010q0 -41 29.5 -71t70.5 -30t70.5 30t29.5 71t-29.5 70.5t-70.5 29.5 t-70.5 -29.5t-29.5 -70.5zM272 1010q0 29 19.5 48t48.5 19t48.5 -19.5t19.5 -47.5q0 -29 -19.5 -48.5t-48.5 -19.5t-48.5 19.5t-19.5 48.5z" />
<glyph unicode="&#xe6;" horiz-adv-x="999" d="M135 164q0 -61 45 -111.5t125 -50.5q31 0 61.5 11.5t55.5 27.5q27 16 53 37v-43q0 -33 33 -33h4q27 0 27 29v26q55 -55 137 -55t139 57.5t57 139.5v6q0 6 -6 6h-51q-6 0 -6 -6v-6q0 -55 -39 -94t-94 -39t-94 38.5t-39 94.5v239h301q31 0 30 33v174q0 41 -16 77t-44 62.5 t-63.5 42t-76.5 15.5l-4 -2q-53 0 -98.5 -27t-71.5 -70q-23 45 -63 72t-95 27q-45 0 -78 -17.5t-55.5 -44t-35.5 -58.5t-17 -60q-4 -31 30 -31q29 0 33 31q10 59 49 88.5t76 29.5q53 0 91 -47t38 -141v-107q-94 -27 -168 -71q-33 -18 -63.5 -43t-54 -55.5t-38 -68.5 t-14.5 -83zM205 158q0 72 43 121t94 79q59 37 137 60l-2 -242q-25 -31 -51 -55q-23 -20 -53.5 -37.5t-65.5 -17.5q-53 0 -77.5 30.5t-24.5 61.5zM545 502v143q0 55 39 94t94 39t94 -39t39 -94v-143h-266z" />
<glyph unicode="&#xe7;" horiz-adv-x="657" d="M131 197q0 -43 16.5 -79t41 -61.5t53 -40t55.5 -14.5q0 -12 10 -25.5t23.5 -26.5t24 -27.5t10.5 -33.5q0 -18 -14.5 -32.5t-51.5 -18.5q-16 0 -16 -16q0 -14 16 -15q39 4 67.5 23.5t28.5 58.5q0 23 -9 41.5t-19.5 31.5t-19.5 23.5t-9 16.5q68 0 123 42t65 124 q4 31 -28 31q-31 0 -37 -31q-12 -51 -48 -78t-83 -27h-2q-55 0 -94 39t-39 95v444q0 55 38.5 94t94.5 39q47 0 82.5 -28.5t46.5 -73.5q6 -31 37 -31q33 0 28 31q-12 72 -66.5 119t-127.5 47q-82 0 -139.5 -57.5t-57.5 -139.5v-444z" />
<glyph unicode="&#xe8;" horiz-adv-x="657" d="M133 197q0 -82 57.5 -139.5t139.5 -57.5q72 0 126 43t66 125q6 31 -26 31q-31 0 -37 -31q-12 -51 -47 -78t-82 -27q-55 0 -94 39t-39 95v239h278q51 0 51 51v154q0 82 -57 139.5t-139 57.5t-139.5 -57.5t-57.5 -139.5v-444zM195 498l2 143q0 55 38.5 94t94.5 39 q55 0 94 -39t39 -94v-143h-268zM252 1061l145 -150q4 -4 9 -4q2 0 10 4q10 10 0 19l-125 166q-6 12 -21 12q-8 0 -16 -8q-25 -16 -2 -39z" />
<glyph unicode="&#xe9;" horiz-adv-x="657" d="M131 197q0 -82 57.5 -139.5t139.5 -57.5q72 0 126 43t66 125q6 31 -26 31q-31 0 -37 -31q-12 -51 -47 -78t-82 -27q-55 0 -94 39t-39 95v239h278q51 0 51 51v154q0 82 -57 139.5t-139 57.5t-139.5 -57.5t-57.5 -139.5v-444zM193 498l2 143q0 55 38.5 94t94.5 39 q55 0 94 -39t39 -94v-143h-268zM276 930q-10 -10 3 -19q4 -4 8 -4t8 4l145 150q20 21 0 39q-12 8 -18 8q-14 0 -21 -12z" />
<glyph unicode="&#xea;" horiz-adv-x="657" d="M133 197q0 -82 57.5 -139.5t139.5 -57.5q72 0 126 43t66 125q6 31 -26 31q-31 0 -37 -31q-12 -51 -47 -78t-82 -27q-55 0 -94 39t-39 95v239h278q51 0 51 51v154q0 82 -57 139.5t-139 57.5t-139.5 -57.5t-57.5 -139.5v-444zM195 498l2 143q0 55 38.5 94t94.5 39 q55 0 94 -39t39 -94v-143h-268zM236 940q-8 -12 8 -12q12 0 20 12l64 137l65 -137q8 -12 21 -12q16 0 8 12l-66 135q-6 18 -26 19q-23 0 -29 -19z" />
<glyph unicode="&#xeb;" horiz-adv-x="657" d="M131 197q0 -82 57.5 -139.5t139.5 -57.5q72 0 126 43t66 125q6 31 -26 31q-31 0 -37 -31q-12 -51 -47 -78t-82 -27q-55 0 -94 39t-39 95v239h278q51 0 51 51v154q0 82 -57 139.5t-139 57.5t-139.5 -57.5t-57.5 -139.5v-444zM133 1010q0 -16 10.5 -26.5t26.5 -10.5 t26.5 10t10.5 27q0 16 -10.5 26.5t-26.5 10.5t-26.5 -10.5t-10.5 -26.5zM193 498l2 143q0 55 38.5 94t94.5 39q55 0 94 -39t39 -94v-143h-268zM449 1010q0 -16 10 -26.5t26 -10.5t26.5 10t10.5 27q0 16 -10 26.5t-27 10.5q-16 0 -26 -10.5t-10 -26.5z" />
<glyph unicode="&#xec;" horiz-adv-x="456" d="M150 1061l145 -150q4 -4 8 -4q2 0 10 4q10 10 0 19l-125 166q-6 12 -20 12q-8 0 -16 -8q-25 -16 -2 -39zM195 33q0 -33 32 -33q31 0 31 33v776q0 31 -31 31q-33 0 -32 -31v-776z" />
<glyph unicode="&#xed;" horiz-adv-x="456" d="M139 930q-10 -10 2 -19q4 -4 9 -4q4 0 8 4l145 150q20 20 0 39q-12 8 -18 8q-15 0 -21 -12zM195 33q0 -33 32 -33q31 0 31 33v776q0 31 -31 31q-33 0 -32 -31v-776z" />
<glyph unicode="&#xee;" horiz-adv-x="462" d="M137 940q-8 -12 8 -12q12 0 21 12l65 137l66 -137q8 -12 20 -12q16 0 9 12l-68 137q-7 17 -27 17q-23 0 -28 -19zM199 33q0 -33 32 -33q31 0 31 33v776q0 31 -31 31q-33 0 -32 -31v-776z" />
<glyph unicode="&#xef;" horiz-adv-x="653" d="M133 1012q0 -16 10.5 -26.5t26.5 -10.5t26.5 10t10.5 27q0 16 -10.5 26.5t-26.5 10.5t-26.5 -10.5t-10.5 -26.5zM295 33q0 -33 33 -33q30 0 30 33v776q0 31 -30 31q-33 0 -33 -31v-776zM449 1012q0 -16 10 -26.5t26 -10.5t26.5 10t10.5 27q0 16 -10.5 26.5t-26.5 10.5 t-26 -10.5t-10 -26.5z" />
<glyph unicode="&#xf1;" horiz-adv-x="659" d="M131 33q0 -33 33 -33q31 0 31 33v626q0 20 13 41t33.5 38.5t45 27.5t47.5 10q72 0 101.5 -28.5t29.5 -88.5v-626q0 -33 33 -33q31 0 30 33v624q0 49 -17 84t-43 56.5t-55.5 32t-54.5 10.5q-41 0 -71.5 -10.5t-53.5 -20.5q-23 -14 -38 -33v33q0 31 -31 31q-33 0 -33 -31 v-776zM150 963q0 -16 16 -17q14 0 14 17q4 31 18.5 57.5t43.5 26.5q25 0 43 -15.5t36.5 -35t41 -35t55.5 -15.5q41 0 65.5 31t28.5 86q0 14 -14 14q-16 0 -17 -14q-4 -33 -19.5 -59.5t-43.5 -26.5q-25 0 -43.5 15.5t-37 35t-41 34.5t-52.5 15q-41 0 -65.5 -30.5t-28.5 -83.5 z" />
<glyph unicode="&#xf2;" horiz-adv-x="657" d="M133 197q0 -82 57.5 -139.5t139.5 -57.5t139 57.5t57 139.5v444q0 82 -57 139.5t-139 57.5t-139.5 -57.5t-57.5 -139.5v-444zM199 197v444q0 55 38.5 94t94.5 39q55 0 94 -39t39 -94v-444q0 -55 -39 -94.5t-94 -39.5t-94 39t-39 95zM233 1061l146 -150q4 -4 8 -4 q2 0 10 4q10 10 0 19l-125 166q-6 12 -20 12q-8 0 -16 -8q-25 -16 -3 -39z" />
<glyph unicode="&#xf3;" horiz-adv-x="657" d="M131 197q0 -82 57.5 -139.5t139.5 -57.5t139 57.5t57 139.5v444q0 82 -57 139.5t-139 57.5t-139.5 -57.5t-57.5 -139.5v-444zM197 197v444q0 55 38.5 94t94.5 39q55 0 94 -39t39 -94v-444q0 -55 -39 -94.5t-94 -39.5t-94 39t-39 95zM260 930q-10 -10 2 -19q4 -4 8 -4t9 4 l145 150q20 21 0 39q-12 8 -18 8q-14 0 -21 -12z" />
<glyph unicode="&#xf4;" horiz-adv-x="657" d="M133 199q0 -82 57.5 -139.5t139.5 -57.5t139 57.5t57 139.5v444q0 82 -57 139.5t-139 57.5t-139.5 -57.5t-57.5 -139.5v-444zM199 199v444q0 55 38.5 94t94.5 39q55 0 94 -39t39 -94v-444q0 -55 -39 -94t-94 -39t-94 38.5t-39 94.5zM236 940q-8 -12 8 -12q12 0 20 12 l64 137l65 -137q8 -12 21 -12q16 0 8 12l-66 135q-6 18 -26 19q-23 0 -29 -19z" />
<glyph unicode="&#xf5;" horiz-adv-x="657" d="M131 199q0 -82 57.5 -139.5t139.5 -57.5t139 57.5t57 139.5v444q0 82 -57 139.5t-139 57.5t-139.5 -57.5t-57.5 -139.5v-444zM150 963q0 -16 16 -17q14 0 14 17q4 31 18.5 57.5t43.5 26.5q25 0 43 -15.5t36.5 -35t41 -35t55.5 -15.5q41 0 65.5 31t28.5 86q0 14 -14 14 q-16 0 -17 -14q-4 -33 -19.5 -59.5t-43.5 -26.5q-25 0 -43.5 15.5t-37 35t-41 34.5t-52.5 15q-41 0 -65.5 -30.5t-28.5 -83.5zM197 199v444q0 55 38.5 94t94.5 39q55 0 94 -39t39 -94v-444q0 -55 -39 -94t-94 -39t-94 38.5t-39 94.5z" />
<glyph unicode="&#xf6;" horiz-adv-x="657" d="M131 197q0 -82 57.5 -139.5t139.5 -57.5t139 57.5t57 139.5v444q0 82 -57 139.5t-139 57.5t-139.5 -57.5t-57.5 -139.5v-444zM133 1010q0 -16 10.5 -26.5t26.5 -10.5t26.5 10t10.5 27q0 16 -10.5 26.5t-26.5 10.5t-26.5 -10.5t-10.5 -26.5zM197 197v444q0 55 38.5 94 t94.5 39q55 0 94 -39t39 -94v-444q0 -55 -39 -94.5t-94 -39.5t-94 39t-39 95zM449 1010q0 -16 10 -26.5t26 -10.5t26.5 10t10.5 27q0 16 -10 26.5t-27 10.5q-16 0 -26 -10.5t-10 -26.5z" />
<glyph unicode="&#xf8;" horiz-adv-x="657" d="M131 197q0 -39 12.5 -69t26.5 -50q16 -23 39 -39l-23 -86q-4 -18 17 -19q16 0 24 19l17 65q10 -6 22 -8q25 -10 62 -10q82 0 139 57.5t57 139.5v444q-4 68 -20.5 100.5t-57.5 57.5l23 86q4 18 -14 18q-20 0 -25 -18l-18 -66q-8 6 -21 10q-10 4 -25.5 6.5t-37.5 2.5 q-82 0 -139.5 -57.5t-57.5 -139.5v-444zM195 199v444q0 55 38.5 94t94.5 39q35 0 55 -8q8 -4 14 -10l-170 -649q-8 8 -16 20q-6 12 -11 29.5t-5 40.5zM262 84l170 649q8 -8 17 -20q6 -10 11 -27.5t5 -40.5l-2 -446q0 -55 -39 -94t-94 -39q-35 0 -51 10q-10 2 -17 8z" />
<glyph unicode="&#xf9;" horiz-adv-x="659" d="M131 182q0 -49 17.5 -84t43 -56.5t55 -31.5t54.5 -10q43 0 74 10t51 23q23 12 39 30v-30q0 -33 33 -33q31 0 30 33v776q0 31 -30 31q-33 0 -33 -31v-629q0 -20 -13.5 -40.5t-34 -38t-45 -28t-46.5 -10.5q-72 0 -101.5 29t-29.5 88v629q0 31 -31 31q-33 0 -33 -31v-627z M254 1061l145 -150q4 -4 9 -4q2 0 10 4q10 11 0 19l-125 166q-6 12 -21 12q-8 0 -16 -8q-25 -16 -2 -39z" />
<glyph unicode="&#xfa;" horiz-adv-x="659" d="M129 182q0 -49 17.5 -84t43 -56.5t55 -31.5t54.5 -10q43 0 73.5 10t51.5 23q23 12 39 30v-30q0 -33 33 -33q31 0 30 33v776q0 31 -30 31q-33 0 -33 -31v-629q0 -20 -13.5 -40.5t-34 -38t-45 -28t-46.5 -10.5q-72 0 -101.5 29t-29.5 88v629q0 31 -31 31q-33 0 -33 -31 v-627zM260 930q-10 -10 2 -19q4 -4 8 -4t9 4l145 150q20 21 0 39q-12 8 -18 8q-14 0 -21 -12z" />
<glyph unicode="&#xfb;" horiz-adv-x="659" d="M133 182q0 -49 17.5 -84t43 -56.5t55.5 -31.5t54 -10q43 0 74 10t51 23q23 12 39 30v-30q0 -33 33 -33q31 0 30 33v776q0 31 -30 31q-33 0 -33 -31v-629q0 -20 -13.5 -40.5t-34 -38t-45 -28t-46.5 -10.5q-72 0 -101.5 29t-29.5 88v629q0 31 -31 31q-33 0 -33 -31v-627z M238 940q-8 -12 8 -12q12 0 20 12l64 137l65 -137q8 -12 21 -12q16 0 8 12l-66 135q-6 18 -26 19q-23 0 -29 -19z" />
<glyph unicode="&#xfc;" horiz-adv-x="659" d="M131 182q0 -49 17.5 -84t43 -56.5t55 -31.5t54.5 -10q43 0 74 10t51 23q23 12 39 30v-30q0 -33 33 -33q31 0 30 33v776q0 31 -30 31q-33 0 -33 -31v-629q0 -20 -13.5 -40.5t-34 -38t-45 -28t-46.5 -10.5q-72 0 -101.5 29t-29.5 88v629q0 31 -31 31q-33 0 -33 -31v-627z M135 1010q0 -16 10.5 -26.5t26.5 -10.5t26.5 10t10.5 27q0 16 -10.5 26.5t-26.5 10.5t-26.5 -10.5t-10.5 -26.5zM451 1010q0 -16 10 -26.5t26 -10.5t26.5 10t10.5 27q0 16 -10 26.5t-27 10.5q-16 0 -26 -10.5t-10 -26.5z" />
<glyph unicode="&#xfd;" horiz-adv-x="659" d="M131 299q0 -49 17.5 -84t43 -56.5t55 -31.5t54.5 -10q43 0 74 10t51 23q23 12 39 30v-260q0 -55 -39 -94t-94 -39q-33 0 -60.5 14.5t-46.5 36.5q-20 29 -49 29q-16 0 -22.5 -8.5t0.5 -22.5q23 -51 70.5 -83t107.5 -32q82 0 139 57.5t57 139.5v887q0 29 -30 33 q-33 0 -33 -31v-510q0 -20 -13.5 -40.5t-34 -38t-45 -28t-46.5 -10.5q-72 0 -101.5 29t-29.5 88v510q0 31 -31 31q-33 0 -33 -31v-508zM256 930q-10 -10 2 -19q4 -4 8 -4t8 4l146 150q20 21 0 39q-12 8 -19 8q-14 0 -20 -12z" />
<glyph unicode="&#xff;" horiz-adv-x="659" d="M131 299q0 -49 17.5 -84t43 -56.5t55 -31.5t54.5 -10q43 0 74 10t51 23q23 12 39 30v-260q0 -55 -39 -94t-94 -39q-33 0 -60.5 14.5t-46.5 36.5q-20 29 -49 29q-16 0 -22.5 -8.5t0.5 -22.5q23 -51 70.5 -83t107.5 -32q82 0 139 57.5t57 139.5v887q0 29 -30 33 q-33 0 -33 -31v-510q0 -20 -13.5 -40.5t-34 -38t-45 -28t-46.5 -10.5q-72 0 -101.5 29t-29.5 88v510q0 31 -31 31q-33 0 -33 -31v-508zM135 1010q0 -16 10.5 -26.5t26.5 -10.5t26.5 10t10.5 27q0 16 -10.5 26.5t-26.5 10.5t-26.5 -10.5t-10.5 -26.5zM451 1010 q0 -16 10 -26.5t26 -10.5t26.5 10t10.5 27q0 16 -10 26.5t-27 10.5q-16 0 -26 -10.5t-10 -26.5z" />
<glyph unicode="&#x152;" horiz-adv-x="923" d="M131 217q0 -45 17.5 -84t46 -67.5t67.5 -46t84 -17.5q94 0 156 66v-33q0 -33 33 -33h223q33 0 33 33t-33 33h-195v446h119q31 0 31 33q0 31 -31 31h-119v407l195 -2q33 0 33 33t-33 33h-221q-35 0 -35 -35v-35q-61 66 -156 65q-45 0 -84 -16t-67.5 -46t-46 -69t-17.5 -84 v-612zM195 217v612q0 63 44 107.5t107 44.5t107.5 -44t44.5 -108v-612q0 -63 -44 -107t-108 -44q-63 0 -107 44t-44 107z" />
<glyph unicode="&#x153;" horiz-adv-x="995" d="M129 197q0 -82 57.5 -139.5t139.5 -57.5q53 0 98 26.5t72 69.5q27 -43 71.5 -69.5t98.5 -26.5q72 0 126 43t66 125q6 31 -27 31q-31 0 -36 -31q-12 -51 -47 -78t-82 -27q-55 0 -94.5 39t-39.5 95v239h279q51 0 51 51v154q0 82 -57 139.5t-139 57.5q-53 0 -98.5 -27 t-71.5 -70q-27 43 -72 70t-98 27q-82 0 -139.5 -57.5t-57.5 -139.5v-444zM197 197v444q0 55 38.5 94t94.5 39q55 0 94 -39t39 -94v-444q0 -55 -39 -94.5t-94 -39.5t-94 39t-39 95zM530 498l2 143q0 55 39 94t95 39q55 0 94 -39t39 -94v-143h-269z" />
<glyph unicode="&#x178;" horiz-adv-x="819" d="M145 1018l234 -588v-397q0 -33 33 -33q31 0 30 33v397l234 586q12 33 -23 33t-47 -33l-196 -494l-197 496q-14 31 -45 31q-16 0 -22.5 -8.5t-0.5 -22.5zM215 1227q0 -16 10.5 -26.5t26.5 -10.5t26.5 10t10.5 27q0 16 -10.5 26.5t-26.5 10.5t-26.5 -10.5t-10.5 -26.5z M530 1227q0 -16 10.5 -26.5t26.5 -10.5t26.5 10t10.5 27q0 16 -10 26.5t-27 10.5q-16 0 -26.5 -10.5t-10.5 -26.5z" />
<glyph unicode="&#x2000;" horiz-adv-x="682" />
<glyph unicode="&#x2001;" horiz-adv-x="1365" />
<glyph unicode="&#x2002;" horiz-adv-x="682" />
<glyph unicode="&#x2003;" horiz-adv-x="1365" />
<glyph unicode="&#x2004;" horiz-adv-x="455" />
<glyph unicode="&#x2005;" horiz-adv-x="341" />
<glyph unicode="&#x2006;" horiz-adv-x="227" />
<glyph unicode="&#x2007;" horiz-adv-x="227" />
<glyph unicode="&#x2008;" horiz-adv-x="170" />
<glyph unicode="&#x2009;" horiz-adv-x="273" />
<glyph unicode="&#x200a;" horiz-adv-x="75" />
<glyph unicode="&#x2010;" horiz-adv-x="614" d="M131 524q0 -33 33 -32h289q30 -1 30 32q0 31 -30 31h-289q-33 0 -33 -31z" />
<glyph unicode="&#x2011;" horiz-adv-x="614" d="M131 524q0 -33 33 -32h289q30 -1 30 32q0 31 -30 31h-289q-33 0 -33 -31z" />
<glyph unicode="&#x2012;" horiz-adv-x="614" d="M131 524q0 -33 33 -32h289q30 -1 30 32q0 31 -30 31h-289q-33 0 -33 -31z" />
<glyph unicode="&#x2013;" horiz-adv-x="704" d="M131 528q0 -33 33 -32h377q30 -1 30 32q0 31 -30 31h-377q-33 0 -33 -31z" />
<glyph unicode="&#x2014;" horiz-adv-x="860" d="M131 524q0 -33 33 -32h532q31 -1 31 32q0 31 -31 31h-532q-33 0 -33 -31z" />
<glyph unicode="&#x2018;" horiz-adv-x="364" d="M131 821q0 -37 37 -37t37 37v82l24 129q4 12 -10 12q-12 0 -18 -10l-64 -133q-6 -8 -6 -22v-58z" />
<glyph unicode="&#x201a;" horiz-adv-x="337" d="M131 33q0 -16 10.5 -26.5t26.5 -10.5v-23q0 -12 6 -12q8 0 13.5 9.5t9.5 21.5t6 24.5t2 16.5q0 16 -10.5 26.5t-26.5 10.5t-26.5 -10.5t-10.5 -26.5z" />
<glyph unicode="&#x201c;" horiz-adv-x="669" d="M131 821q0 -37 37 -37t37 37v82l24 129q4 12 -10 12q-12 0 -18 -10l-64 -133q-6 -8 -6 -22v-58zM438 821q0 -37 37 -37t37 37v82l25 129q4 12 -11 12q-12 0 -18 -10l-64 -133q-6 -8 -6 -22v-58z" />
<glyph unicode="&#x201e;" horiz-adv-x="653" d="M131 33q0 -16 10.5 -26.5t26.5 -10.5v-23q0 -12 6 -12q8 0 13.5 9.5t9.5 21.5t6 24.5t2 16.5q0 16 -10.5 26.5t-26.5 10.5t-26.5 -10.5t-10.5 -26.5zM446 33q0 -16 10.5 -26.5t26.5 -10.5v-23q0 -12 6 -12q8 0 13.5 9.5t9.5 21.5t6 24.5t2 16.5q0 16 -10.5 26.5 t-26.5 10.5t-26.5 -10.5t-10.5 -26.5z" />
<glyph unicode="&#x2022;" horiz-adv-x="405" d="M131 522q0 -29 21.5 -50t50.5 -21t50 21.5t21 49.5q0 29 -21 50.5t-50 21.5t-50.5 -21.5t-21.5 -50.5z" />
<glyph unicode="&#x2026;" horiz-adv-x="968" d="M131 37q0 -16 10.5 -26.5t26.5 -10.5t26.5 10t10.5 27q0 16 -10.5 26.5t-26.5 10.5t-26.5 -10.5t-10.5 -26.5zM446 37q0 -16 10.5 -26.5t26.5 -10.5t26.5 10t10.5 27q0 16 -10.5 26.5t-26.5 10.5t-26.5 -10.5t-10.5 -26.5zM762 37q0 -16 10 -26.5t27 -10.5q16 0 26.5 10 t10.5 27q0 16 -10.5 26.5t-26.5 10.5t-26.5 -10.5t-10.5 -26.5z" />
<glyph unicode="&#x202f;" horiz-adv-x="273" />
<glyph unicode="&#x205f;" horiz-adv-x="341" />
<glyph unicode="&#x20ac;" horiz-adv-x="765" d="M131 438q0 -16 16 -16h56v-207q0 -45 17.5 -84t46 -67.5t67.5 -46t84 -17.5q80 0 140 51t73 127q4 31 -29 31q-31 0 -37 -31q-10 -51 -52 -84t-95 -33q-63 0 -107.5 44.5t-44.5 107.5v207h197q16 0 16 16t-16 17h-197v137h197q16 0 16 16t-16 17h-197v206q0 63 44 107.5 t108 44.5q53 0 95 -34t52 -81q6 -31 37 -30q33 0 29 30q-12 78 -72.5 129.5t-140.5 51.5q-45 0 -84 -16.5t-67.5 -46.5t-46 -68.5t-17.5 -84.5v-206h-56q-16 0 -16 -17q0 -16 16 -16h56v-137h-56q-16 0 -16 -17z" />
<glyph unicode="&#x2122;" horiz-adv-x="591" d="M131 1040q0 -10 10 -10h41v-291q0 -10 11 -10q8 0 8 10v291h43q8 0 8 10q0 8 -8 9h-105q-12 0 -8 -9zM272 739q0 -10 11 -10q8 0 8 10v262l37 -63q16 -31 37 -31q23 0 36 31l37 63v-262q0 -10 11 -10q8 0 8 10v303q0 6 -6 7q-9 -1 -13 -7l-73 -131l-74 131q-2 6 -10 7 q-8 0 -9 -7v-303z" />
<glyph unicode="&#x25fc;" horiz-adv-x="839" d="M0 0v840h840v-840h-840z" />
</font>
</defs>
</svg>
